<svg xmlns="http://www.w3.org/2000/svg" xmlns:xlink="http://www.w3.org/1999/xlink" width="40" zoomAndPan="magnify" viewBox="0 0 30 30.000001" height="40" preserveAspectRatio="xMidYMid meet" version="1.0"><defs><clipPath id="2fa5f49346"><path d="M 0.484375 0 L 29.515625 0 L 29.515625 29.03125 L 0.484375 29.03125 Z M 0.484375 0 " clip-rule="nonzero"/></clipPath><clipPath id="66624ea4f4"><path d="M 6 5 L 29 5 L 29 29.03125 L 6 29.03125 Z M 6 5 " clip-rule="nonzero"/></clipPath></defs><g clip-path="url(#2fa5f49346)"><path fill="#cad3ff" d="M 29.515625 14.515625 C 29.515625 15.46875 29.421875 16.414062 29.238281 17.347656 C 29.050781 18.28125 28.777344 19.191406 28.410156 20.070312 C 28.046875 20.953125 27.597656 21.789062 27.070312 22.582031 C 26.539062 23.375 25.9375 24.105469 25.265625 24.78125 C 24.589844 25.453125 23.855469 26.054688 23.066406 26.585938 C 22.273438 27.117188 21.4375 27.5625 20.554688 27.925781 C 19.675781 28.292969 18.765625 28.566406 17.832031 28.753906 C 16.898438 28.9375 15.953125 29.03125 15 29.03125 C 14.046875 29.03125 13.101562 28.9375 12.167969 28.753906 C 11.234375 28.566406 10.324219 28.292969 9.445312 27.925781 C 8.5625 27.5625 7.726562 27.117188 6.933594 26.585938 C 6.144531 26.054688 5.410156 25.453125 4.734375 24.78125 C 4.0625 24.105469 3.460938 23.375 2.929688 22.582031 C 2.402344 21.789062 1.953125 20.953125 1.589844 20.070312 C 1.222656 19.191406 0.949219 18.28125 0.761719 17.347656 C 0.578125 16.414062 0.484375 15.46875 0.484375 14.515625 C 0.484375 13.5625 0.578125 12.617188 0.761719 11.683594 C 0.949219 10.75 1.222656 9.839844 1.589844 8.960938 C 1.953125 8.082031 2.402344 7.242188 2.929688 6.453125 C 3.460938 5.660156 4.0625 4.925781 4.734375 4.25 C 5.410156 3.578125 6.144531 2.976562 6.933594 2.445312 C 7.726562 1.917969 8.5625 1.46875 9.445312 1.105469 C 10.324219 0.742188 11.234375 0.464844 12.167969 0.277344 C 13.101562 0.09375 14.046875 0 15 0 C 15.953125 0 16.898438 0.09375 17.832031 0.277344 C 18.765625 0.464844 19.675781 0.742188 20.554688 1.105469 C 21.4375 1.46875 22.273438 1.917969 23.066406 2.445312 C 23.855469 2.976562 24.589844 3.578125 25.265625 4.25 C 25.9375 4.925781 26.539062 5.660156 27.070312 6.453125 C 27.597656 7.242188 28.046875 8.082031 28.410156 8.960938 C 28.777344 9.839844 29.050781 10.75 29.238281 11.683594 C 29.421875 12.617188 29.515625 13.5625 29.515625 14.515625 Z M 29.515625 14.515625 " fill-opacity="1" fill-rule="nonzero"/></g><g clip-path="url(#66624ea4f4)"><path fill="#adbdf7" d="M 28.945312 18.5625 C 26.289062 15.890625 23.304688 12.960938 23.183594 12.960938 L 22.128906 12.960938 C 21.792969 12.84375 21.335938 12.699219 20.816406 12.554688 C 20.820312 12.546875 20.820312 12.542969 20.820312 12.539062 C 20.820312 12.527344 20.824219 12.515625 20.824219 12.503906 C 20.828125 12.460938 20.835938 12.421875 20.839844 12.378906 C 20.839844 12.371094 20.839844 12.359375 20.839844 12.351562 C 20.84375 12.316406 20.847656 12.28125 20.851562 12.25 C 20.851562 12.234375 20.851562 12.222656 20.855469 12.210938 C 20.855469 12.167969 20.859375 12.125 20.863281 12.082031 C 20.863281 12.074219 20.863281 12.070312 20.863281 12.0625 C 20.863281 12.023438 20.867188 11.988281 20.867188 11.949219 C 20.867188 11.9375 20.867188 11.925781 20.867188 11.910156 C 20.867188 11.871094 20.871094 11.832031 20.871094 11.789062 C 20.871094 11.785156 20.871094 11.785156 20.871094 11.78125 C 20.871094 11.742188 20.867188 11.707031 20.867188 11.671875 C 20.867188 11.660156 20.867188 11.648438 20.867188 11.636719 C 20.867188 11.605469 20.867188 11.574219 20.863281 11.546875 C 20.863281 11.527344 20.863281 11.507812 20.863281 11.488281 C 20.859375 11.460938 20.859375 11.429688 20.855469 11.402344 C 20.855469 11.382812 20.855469 11.363281 20.851562 11.34375 C 20.851562 11.316406 20.847656 11.289062 20.847656 11.257812 C 20.84375 11.238281 20.84375 11.21875 20.839844 11.199219 C 20.835938 11.171875 20.835938 11.144531 20.832031 11.117188 C 20.828125 11.09375 20.828125 11.074219 20.824219 11.054688 C 20.820312 11.027344 20.816406 11 20.8125 10.972656 C 20.808594 10.953125 20.808594 10.933594 20.804688 10.914062 C 20.800781 10.886719 20.796875 10.859375 20.792969 10.832031 C 20.789062 10.8125 20.785156 10.792969 20.78125 10.773438 C 20.777344 10.746094 20.769531 10.71875 20.765625 10.691406 C 20.761719 10.671875 20.757812 10.652344 20.753906 10.632812 C 20.75 10.605469 20.742188 10.578125 20.738281 10.550781 C 20.734375 10.53125 20.730469 10.511719 20.726562 10.492188 C 20.71875 10.464844 20.710938 10.4375 20.707031 10.410156 C 20.703125 10.394531 20.695312 10.375 20.691406 10.355469 C 20.683594 10.328125 20.679688 10.300781 20.671875 10.273438 C 20.664062 10.257812 20.660156 10.238281 20.65625 10.21875 C 20.648438 10.191406 20.640625 10.164062 20.632812 10.136719 C 20.628906 10.121094 20.621094 10.101562 20.617188 10.085938 C 20.609375 10.058594 20.597656 10.03125 20.589844 10.003906 C 20.585938 9.984375 20.578125 9.96875 20.574219 9.953125 C 20.566406 9.925781 20.554688 9.898438 20.546875 9.871094 C 20.539062 9.855469 20.535156 9.835938 20.527344 9.820312 C 20.519531 9.792969 20.507812 9.765625 20.496094 9.738281 C 20.492188 9.722656 20.484375 9.707031 20.480469 9.691406 C 20.46875 9.664062 20.457031 9.636719 20.445312 9.609375 C 20.441406 9.59375 20.433594 9.578125 20.429688 9.5625 C 20.417969 9.535156 20.40625 9.507812 20.394531 9.480469 C 20.386719 9.464844 20.378906 9.449219 20.375 9.4375 C 20.363281 9.40625 20.347656 9.378906 20.335938 9.351562 C 20.328125 9.339844 20.324219 9.324219 20.316406 9.3125 C 20.304688 9.28125 20.289062 9.253906 20.277344 9.226562 C 20.269531 9.214844 20.261719 9.199219 20.257812 9.1875 C 20.242188 9.160156 20.226562 9.128906 20.214844 9.101562 C 20.207031 9.089844 20.199219 9.078125 20.191406 9.066406 C 20.179688 9.039062 20.164062 9.007812 20.148438 8.980469 C 20.140625 8.96875 20.132812 8.957031 20.128906 8.945312 C 20.113281 8.917969 20.09375 8.890625 20.078125 8.859375 C 20.074219 8.847656 20.066406 8.839844 20.058594 8.828125 C 20.042969 8.800781 20.023438 8.769531 20.007812 8.742188 C 20 8.730469 19.996094 8.722656 19.988281 8.710938 C 19.96875 8.683594 19.953125 8.65625 19.933594 8.625 C 19.925781 8.617188 19.921875 8.605469 19.914062 8.597656 C 19.894531 8.570312 19.875 8.539062 19.855469 8.511719 C 19.851562 8.503906 19.84375 8.496094 19.839844 8.484375 C 19.820312 8.457031 19.796875 8.425781 19.777344 8.398438 C 19.773438 8.390625 19.765625 8.382812 19.761719 8.375 C 19.738281 8.347656 19.71875 8.316406 19.695312 8.289062 C 19.691406 8.28125 19.6875 8.273438 19.679688 8.269531 C 19.65625 8.238281 19.636719 8.210938 19.613281 8.179688 C 19.605469 8.175781 19.601562 8.167969 19.597656 8.164062 C 19.574219 8.132812 19.550781 8.101562 19.523438 8.074219 C 19.519531 8.070312 19.515625 8.0625 19.511719 8.058594 C 19.488281 8.03125 19.460938 8 19.4375 7.96875 C 19.433594 7.964844 19.429688 7.960938 19.425781 7.960938 C 19.398438 7.929688 19.371094 7.898438 19.34375 7.867188 C 19.34375 7.863281 19.339844 7.863281 19.339844 7.859375 C 19.308594 7.828125 19.28125 7.796875 19.25 7.765625 C 18.976562 7.484375 18.679688 7.234375 18.355469 7.011719 C 18.03125 6.789062 17.691406 6.601562 17.328125 6.449219 C 16.96875 6.296875 16.59375 6.183594 16.210938 6.105469 C 15.824219 6.03125 15.4375 5.992188 15.042969 5.996094 C 14.652344 6 14.265625 6.042969 13.878906 6.125 C 13.496094 6.207031 13.125 6.324219 12.765625 6.480469 C 12.40625 6.640625 12.066406 6.832031 11.746094 7.058594 C 11.425781 7.285156 11.132812 7.539062 10.863281 7.828125 L 10.859375 7.832031 C 10.828125 7.863281 10.796875 7.898438 10.769531 7.929688 C 10.765625 7.933594 10.761719 7.941406 10.757812 7.945312 C 10.730469 7.976562 10.703125 8.007812 10.675781 8.039062 C 10.671875 8.042969 10.664062 8.050781 10.660156 8.058594 C 10.632812 8.085938 10.609375 8.117188 10.585938 8.144531 C 10.578125 8.152344 10.574219 8.164062 10.566406 8.171875 C 10.542969 8.199219 10.523438 8.226562 10.5 8.253906 C 10.492188 8.265625 10.484375 8.273438 10.476562 8.285156 C 10.457031 8.3125 10.4375 8.335938 10.417969 8.363281 C 10.410156 8.375 10.398438 8.390625 10.390625 8.402344 C 10.375 8.421875 10.359375 8.441406 10.347656 8.464844 C 10.332031 8.484375 10.320312 8.5 10.308594 8.519531 C 10.296875 8.535156 10.285156 8.554688 10.273438 8.570312 C 10.257812 8.59375 10.242188 8.617188 10.226562 8.640625 C 10.214844 8.65625 10.207031 8.671875 10.195312 8.6875 C 10.179688 8.714844 10.164062 8.738281 10.148438 8.761719 C 10.140625 8.777344 10.132812 8.792969 10.121094 8.808594 C 10.105469 8.832031 10.089844 8.859375 10.074219 8.886719 C 10.066406 8.902344 10.058594 8.914062 10.050781 8.929688 C 10.039062 8.953125 10.023438 8.980469 10.011719 9.003906 C 10 9.019531 9.992188 9.035156 9.984375 9.050781 C 9.972656 9.074219 9.957031 9.101562 9.945312 9.125 C 9.9375 9.140625 9.929688 9.15625 9.921875 9.167969 C 9.910156 9.195312 9.894531 9.226562 9.882812 9.253906 C 9.875 9.265625 9.871094 9.277344 9.863281 9.289062 C 9.847656 9.320312 9.835938 9.351562 9.820312 9.382812 C 9.816406 9.390625 9.8125 9.402344 9.808594 9.410156 C 9.792969 9.445312 9.777344 9.476562 9.761719 9.511719 C 9.757812 9.523438 9.753906 9.53125 9.75 9.539062 C 9.734375 9.574219 9.722656 9.609375 9.707031 9.644531 C 9.703125 9.65625 9.699219 9.664062 9.699219 9.671875 C 9.683594 9.707031 9.667969 9.742188 9.65625 9.78125 C 9.652344 9.789062 9.648438 9.796875 9.648438 9.804688 C 9.632812 9.839844 9.621094 9.878906 9.609375 9.917969 C 9.605469 9.921875 9.601562 9.929688 9.601562 9.9375 C 9.585938 9.976562 9.574219 10.015625 9.5625 10.054688 C 9.5625 10.058594 9.558594 10.066406 9.558594 10.070312 C 9.546875 10.113281 9.53125 10.152344 9.519531 10.195312 C 9.519531 10.199219 9.519531 10.199219 9.519531 10.203125 C 9.480469 10.339844 9.445312 10.476562 9.417969 10.617188 C 9.410156 10.660156 9.398438 10.707031 9.390625 10.753906 L 9.390625 10.757812 C 9.382812 10.804688 9.375 10.851562 9.367188 10.898438 C 9.367188 10.898438 9.367188 10.902344 9.367188 10.902344 C 9.359375 10.949219 9.351562 10.996094 9.347656 11.042969 C 9.347656 11.042969 9.347656 11.046875 9.347656 11.046875 C 9.339844 11.09375 9.335938 11.140625 9.332031 11.1875 C 9.332031 11.1875 9.332031 11.191406 9.332031 11.191406 C 9.324219 11.238281 9.320312 11.289062 9.316406 11.335938 C 9.304688 11.484375 9.300781 11.632812 9.300781 11.78125 C 9.300781 11.828125 9.300781 11.878906 9.300781 11.925781 C 9.300781 11.933594 9.304688 11.941406 9.304688 11.945312 C 9.304688 11.988281 9.304688 12.027344 9.308594 12.066406 C 9.308594 12.078125 9.308594 12.089844 9.308594 12.101562 C 9.3125 12.136719 9.3125 12.171875 9.316406 12.207031 C 9.316406 12.21875 9.316406 12.234375 9.320312 12.246094 C 9.320312 12.28125 9.324219 12.316406 9.328125 12.351562 C 9.328125 12.363281 9.332031 12.375 9.332031 12.386719 C 9.335938 12.421875 9.339844 12.460938 9.34375 12.496094 C 9.347656 12.507812 9.347656 12.515625 9.347656 12.523438 C 9.347656 12.535156 9.351562 12.546875 9.351562 12.554688 C 8.835938 12.699219 8.386719 12.847656 8.050781 12.960938 L 6.988281 12.960938 C 6.878906 12.960938 6.785156 13 6.707031 13.078125 C 6.628906 13.15625 6.589844 13.25 6.589844 13.359375 L 6.589844 22.804688 C 6.589844 22.929688 9.695312 26.09375 12.425781 28.804688 C 13.277344 28.957031 14.136719 29.03125 15 29.03125 C 21.613281 29.03125 27.195312 24.609375 28.945312 18.5625 Z M 15.085938 22.25 C 15.085938 22.222656 15.085938 22.195312 15.082031 22.171875 L 15.082031 17.566406 L 15.085938 17.566406 Z M 15.085938 22.25 " fill-opacity="1" fill-rule="nonzero"/></g><path fill="#387c6d" d="M 6.503906 13.273438 L 6.503906 22.722656 C 6.503906 22.832031 6.542969 22.925781 6.621094 23.003906 C 6.699219 23.082031 6.792969 23.121094 6.902344 23.121094 L 14.996094 23.121094 L 14.996094 12.875 L 6.902344 12.875 C 6.792969 12.875 6.699219 12.914062 6.621094 12.992188 C 6.542969 13.070312 6.503906 13.164062 6.503906 13.273438 Z M 6.503906 13.273438 " fill-opacity="1" fill-rule="nonzero"/><path fill="#387c6d" d="M 23.097656 12.875 L 15.003906 12.875 L 15.003906 23.121094 L 23.097656 23.121094 C 23.207031 23.121094 23.300781 23.082031 23.378906 23.003906 C 23.457031 22.925781 23.496094 22.832031 23.496094 22.722656 L 23.496094 13.273438 C 23.496094 13.164062 23.457031 13.070312 23.378906 12.992188 C 23.300781 12.914062 23.207031 12.875 23.097656 12.875 Z M 23.097656 12.875 " fill-opacity="1" fill-rule="nonzero"/><path fill="#e9896a" d="M 7.371094 21.617188 L 7.371094 22.40625 L 15 22.40625 C 15.191406 18.53125 7.371094 21.617188 7.371094 21.617188 Z M 7.371094 21.617188 " fill-opacity="1" fill-rule="nonzero"/><path fill="#e9896a" d="M 15.007812 22.40625 L 22.640625 22.40625 L 22.640625 21.617188 C 22.640625 21.617188 14.820312 18.53125 15.007812 22.40625 Z M 15.007812 22.40625 " fill-opacity="1" fill-rule="nonzero"/><path fill="#f8f5f1" d="M 14.996094 13.417969 L 14.980469 13.417969 C 14.527344 10.269531 7.371094 13.09375 7.371094 13.09375 L 7.371094 21.617188 C 7.371094 21.617188 14.699219 18.726562 14.996094 22.054688 L 14.996094 13.878906 L 15 13.878906 C 15.007812 13.761719 15.003906 13.648438 14.996094 13.53125 Z M 14.996094 13.417969 " fill-opacity="1" fill-rule="nonzero"/><path fill="#f8f5f1" d="M 15.027344 13.417969 L 15.015625 13.417969 L 15.015625 13.53125 C 15.003906 13.648438 15.003906 13.761719 15.007812 13.878906 L 15.015625 13.878906 L 15.015625 22.054688 C 15.308594 18.726562 22.640625 21.617188 22.640625 21.617188 L 22.640625 13.09375 C 22.640625 13.09375 15.484375 10.269531 15.027344 13.417969 Z M 15.027344 13.417969 " fill-opacity="1" fill-rule="nonzero"/><path fill="#cee6b4" d="M 14.164062 13.980469 C 12.726562 13.285156 10.214844 13.898438 8.359375 14.535156 C 8.292969 14.554688 8.242188 14.597656 8.210938 14.660156 C 8.179688 14.722656 8.175781 14.789062 8.199219 14.855469 C 8.222656 14.921875 8.265625 14.96875 8.332031 15 C 8.394531 15.027344 8.457031 15.03125 8.523438 15.011719 C 9.96875 14.515625 12.59375 13.78125 13.941406 14.433594 C 14.003906 14.464844 14.066406 14.46875 14.132812 14.445312 C 14.199219 14.421875 14.25 14.378906 14.28125 14.316406 C 14.308594 14.253906 14.316406 14.191406 14.292969 14.125 C 14.269531 14.058594 14.226562 14.011719 14.164062 13.980469 Z M 14.164062 13.980469 " fill-opacity="1" fill-rule="nonzero"/><path fill="#cee6b4" d="M 14.164062 15.488281 C 12.726562 14.792969 10.214844 15.40625 8.359375 16.039062 C 8.292969 16.0625 8.242188 16.105469 8.210938 16.167969 C 8.179688 16.230469 8.175781 16.296875 8.199219 16.359375 C 8.242188 16.472656 8.320312 16.53125 8.441406 16.53125 C 8.46875 16.53125 8.496094 16.527344 8.523438 16.515625 C 9.96875 16.023438 12.59375 15.289062 13.941406 15.941406 C 14.003906 15.972656 14.066406 15.976562 14.132812 15.953125 C 14.199219 15.929688 14.25 15.886719 14.28125 15.824219 C 14.308594 15.761719 14.316406 15.699219 14.292969 15.632812 C 14.269531 15.566406 14.226562 15.519531 14.164062 15.488281 Z M 14.164062 15.488281 " fill-opacity="1" fill-rule="nonzero"/><path fill="#cee6b4" d="M 14.164062 16.996094 C 12.726562 16.300781 10.214844 16.914062 8.359375 17.546875 C 8.292969 17.570312 8.242188 17.613281 8.210938 17.675781 C 8.179688 17.738281 8.175781 17.800781 8.199219 17.867188 C 8.242188 17.980469 8.320312 18.039062 8.441406 18.039062 C 8.46875 18.039062 8.496094 18.03125 8.523438 18.023438 C 9.96875 17.527344 12.59375 16.796875 13.941406 17.449219 C 14.003906 17.476562 14.066406 17.480469 14.132812 17.460938 C 14.199219 17.4375 14.25 17.394531 14.28125 17.332031 C 14.308594 17.269531 14.316406 17.203125 14.292969 17.140625 C 14.269531 17.074219 14.226562 17.023438 14.164062 16.996094 Z M 14.164062 16.996094 " fill-opacity="1" fill-rule="nonzero"/><path fill="#cee6b4" d="M 14.164062 18.5 C 12.726562 17.808594 10.214844 18.417969 8.359375 19.054688 C 8.292969 19.078125 8.242188 19.117188 8.210938 19.183594 C 8.179688 19.246094 8.175781 19.308594 8.199219 19.375 C 8.242188 19.488281 8.320312 19.542969 8.441406 19.542969 C 8.46875 19.542969 8.496094 19.539062 8.523438 19.53125 C 9.96875 19.035156 12.59375 18.304688 13.941406 18.953125 C 14.003906 18.984375 14.066406 18.988281 14.132812 18.964844 C 14.199219 18.945312 14.25 18.902344 14.28125 18.839844 C 14.308594 18.777344 14.316406 18.710938 14.292969 18.644531 C 14.269531 18.578125 14.226562 18.53125 14.164062 18.5 Z M 14.164062 18.5 " fill-opacity="1" fill-rule="nonzero"/><path fill="#cee6b4" d="M 16.082031 14.433594 C 17.429688 13.78125 20.054688 14.515625 21.496094 15.011719 C 21.523438 15.019531 21.550781 15.023438 21.582031 15.023438 C 21.699219 15.023438 21.78125 14.96875 21.820312 14.855469 C 21.84375 14.789062 21.839844 14.722656 21.808594 14.660156 C 21.777344 14.597656 21.730469 14.554688 21.664062 14.535156 C 19.808594 13.898438 17.296875 13.285156 15.859375 13.980469 C 15.796875 14.011719 15.753906 14.058594 15.730469 14.125 C 15.707031 14.191406 15.710938 14.253906 15.742188 14.316406 C 15.773438 14.378906 15.820312 14.421875 15.886719 14.445312 C 15.953125 14.46875 16.019531 14.464844 16.082031 14.433594 Z M 16.082031 14.433594 " fill-opacity="1" fill-rule="nonzero"/><path fill="#cee6b4" d="M 21.664062 16.039062 C 19.808594 15.40625 17.296875 14.792969 15.859375 15.488281 C 15.796875 15.519531 15.753906 15.566406 15.730469 15.632812 C 15.707031 15.699219 15.710938 15.761719 15.742188 15.824219 C 15.773438 15.886719 15.820312 15.929688 15.886719 15.953125 C 15.953125 15.976562 16.019531 15.972656 16.082031 15.941406 C 17.429688 15.289062 20.054688 16.023438 21.496094 16.515625 C 21.5625 16.539062 21.628906 16.535156 21.691406 16.503906 C 21.753906 16.476562 21.796875 16.425781 21.820312 16.359375 C 21.84375 16.296875 21.839844 16.230469 21.808594 16.167969 C 21.777344 16.105469 21.730469 16.0625 21.664062 16.039062 Z M 21.664062 16.039062 " fill-opacity="1" fill-rule="nonzero"/><path fill="#cee6b4" d="M 21.664062 17.546875 C 19.808594 16.910156 17.296875 16.300781 15.859375 16.996094 C 15.796875 17.023438 15.753906 17.074219 15.730469 17.136719 C 15.707031 17.203125 15.710938 17.269531 15.742188 17.332031 C 15.773438 17.394531 15.820312 17.4375 15.886719 17.460938 C 15.953125 17.480469 16.019531 17.476562 16.082031 17.445312 C 17.429688 16.796875 20.054688 17.527344 21.496094 18.023438 C 21.5625 18.046875 21.628906 18.042969 21.691406 18.011719 C 21.753906 17.980469 21.796875 17.933594 21.820312 17.867188 C 21.84375 17.800781 21.839844 17.738281 21.808594 17.675781 C 21.777344 17.613281 21.730469 17.570312 21.664062 17.546875 Z M 21.664062 17.546875 " fill-opacity="1" fill-rule="nonzero"/><path fill="#cee6b4" d="M 21.664062 19.054688 C 19.808594 18.417969 17.296875 17.808594 15.859375 18.5 C 15.796875 18.53125 15.753906 18.578125 15.730469 18.644531 C 15.707031 18.710938 15.710938 18.777344 15.742188 18.839844 C 15.773438 18.902344 15.820312 18.945312 15.886719 18.964844 C 15.953125 18.988281 16.019531 18.984375 16.082031 18.953125 C 17.429688 18.304688 20.054688 19.035156 21.496094 19.53125 C 21.5625 19.554688 21.628906 19.550781 21.691406 19.519531 C 21.753906 19.488281 21.796875 19.441406 21.820312 19.375 C 21.84375 19.308594 21.839844 19.246094 21.808594 19.183594 C 21.777344 19.117188 21.730469 19.078125 21.664062 19.054688 Z M 21.664062 19.054688 " fill-opacity="1" fill-rule="nonzero"/><path fill="#cee6b4" d="M 15 5.910156 C 11.804688 5.910156 9.214844 8.5 9.214844 11.695312 C 9.214844 14.890625 11.804688 17.480469 15 17.480469 C 18.195312 17.480469 20.785156 14.890625 20.785156 11.695312 C 20.785156 8.5 18.195312 5.910156 15 5.910156 Z M 15 5.910156 " fill-opacity="1" fill-rule="nonzero"/><path fill="#387c6d" d="M 16.484375 9.960938 L 16.300781 9.546875 C 16.285156 9.507812 16.277344 9.464844 16.28125 9.421875 L 16.304688 9.175781 C 16.316406 9.058594 16.265625 8.976562 16.15625 8.929688 C 16.046875 8.882812 15.953125 8.902344 15.875 8.992188 L 15.613281 9.289062 C 15.570312 9.335938 15.550781 9.390625 15.550781 9.453125 L 15.550781 10.070312 C 15.550781 10.101562 15.558594 10.132812 15.570312 10.164062 L 15.648438 10.347656 C 15.675781 10.414062 15.722656 10.457031 15.789062 10.484375 C 15.855469 10.507812 15.921875 10.503906 15.984375 10.472656 L 16.371094 10.277344 C 16.511719 10.207031 16.550781 10.101562 16.484375 9.960938 Z M 16.484375 9.960938 " fill-opacity="1" fill-rule="nonzero"/><path fill="#387c6d" d="M 19.164062 7.683594 C 19.109375 7.625 19.046875 7.609375 18.96875 7.625 L 18.035156 7.84375 C 17.992188 7.855469 17.960938 7.875 17.933594 7.90625 L 17.6875 8.164062 C 17.671875 8.175781 17.664062 8.195312 17.652344 8.210938 L 17.515625 8.488281 C 17.496094 8.527344 17.46875 8.558594 17.429688 8.578125 C 17.308594 8.640625 17.28125 8.734375 17.34375 8.851562 L 17.472656 9.101562 C 17.5 9.15625 17.542969 9.191406 17.601562 9.207031 C 17.660156 9.21875 17.71875 9.210938 17.769531 9.175781 L 18.019531 9.007812 C 18.117188 8.941406 18.207031 8.949219 18.285156 9.039062 L 18.429688 9.191406 C 18.5 9.265625 18.507812 9.351562 18.453125 9.4375 L 18.125 9.96875 C 18.085938 10.03125 18.027344 10.066406 17.949219 10.066406 L 17.292969 10.066406 C 17.203125 10.066406 17.140625 10.105469 17.105469 10.183594 L 16.925781 10.585938 C 16.914062 10.613281 16.90625 10.640625 16.90625 10.667969 L 16.90625 10.804688 C 16.90625 10.851562 16.921875 10.898438 16.957031 10.933594 L 17.515625 11.601562 C 17.566406 11.664062 17.632812 11.6875 17.714844 11.671875 L 18.554688 11.503906 C 18.589844 11.496094 18.621094 11.480469 18.648438 11.457031 L 19.058594 11.101562 C 19.074219 11.085938 19.09375 11.074219 19.117188 11.0625 L 19.375 10.960938 C 19.453125 10.929688 19.523438 10.941406 19.585938 10.996094 L 20.019531 11.378906 C 20.066406 11.417969 20.089844 11.46875 20.089844 11.53125 L 20.089844 11.945312 C 20.089844 12.03125 20.050781 12.089844 19.976562 12.128906 L 19.214844 12.527344 C 19.195312 12.535156 19.175781 12.542969 19.152344 12.546875 L 18.027344 12.71875 C 18.015625 12.722656 18.003906 12.722656 17.996094 12.722656 L 17.460938 12.722656 C 17.382812 12.722656 17.320312 12.757812 17.28125 12.828125 L 17.140625 13.082031 L 16.925781 13.5 C 16.914062 13.523438 16.898438 13.542969 16.875 13.5625 L 16.679688 13.722656 C 16.613281 13.777344 16.59375 13.847656 16.613281 13.933594 C 16.648438 14.0625 16.695312 14.257812 16.707031 14.292969 C 16.722656 14.332031 16.804688 14.53125 16.855469 14.648438 C 16.878906 14.703125 16.917969 14.738281 16.972656 14.757812 L 17.378906 14.90625 C 17.449219 14.933594 17.492188 14.980469 17.511719 15.054688 L 17.550781 15.234375 C 17.554688 15.257812 17.554688 15.28125 17.554688 15.308594 L 17.46875 15.921875 C 17.46875 15.933594 17.46875 15.945312 17.46875 15.957031 L 17.496094 16.585938 C 17.5 16.664062 17.535156 16.722656 17.601562 16.757812 C 17.667969 16.796875 17.738281 16.792969 17.804688 16.757812 C 19.582031 15.769531 20.785156 13.875 20.785156 11.695312 C 20.785156 10.949219 20.644531 10.226562 20.367188 9.53125 C 20.085938 8.835938 19.683594 8.21875 19.164062 7.683594 Z M 19.164062 7.683594 " fill-opacity="1" fill-rule="nonzero"/><path fill="#387c6d" d="M 13.601562 17 L 13.359375 16.6875 L 13.046875 16.347656 C 12.996094 16.296875 12.972656 16.234375 12.972656 16.164062 L 12.972656 15.859375 C 12.972656 15.71875 12.90625 15.632812 12.769531 15.597656 L 12.527344 15.535156 C 12.503906 15.53125 12.480469 15.527344 12.460938 15.527344 L 12.074219 15.527344 C 12 15.527344 11.9375 15.503906 11.882812 15.449219 L 11.660156 15.226562 C 11.621094 15.1875 11.597656 15.140625 11.585938 15.085938 L 11.523438 14.761719 C 11.511719 14.695312 11.476562 14.640625 11.425781 14.597656 L 11.296875 14.5 C 11.179688 14.40625 11.0625 14.410156 10.953125 14.511719 C 10.839844 14.609375 10.722656 14.613281 10.605469 14.519531 L 10.417969 14.371094 C 10.386719 14.347656 10.363281 14.316406 10.34375 14.28125 L 10.152344 13.894531 C 10.105469 13.800781 10.113281 13.710938 10.171875 13.625 L 10.347656 13.363281 C 10.378906 13.3125 10.425781 13.277344 10.480469 13.257812 L 10.707031 13.179688 C 10.773438 13.15625 10.824219 13.113281 10.855469 13.046875 L 11.09375 12.585938 L 11.351562 12.195312 C 11.390625 12.136719 11.402344 12.074219 11.390625 12.003906 L 11.335938 11.695312 L 11.273438 11.203125 C 11.265625 11.128906 11.285156 11.066406 11.328125 11.007812 L 11.5 10.777344 C 11.582031 10.667969 11.6875 10.636719 11.816406 10.6875 L 11.9375 10.738281 C 11.972656 10.75 12.003906 10.757812 12.039062 10.757812 L 12.542969 10.757812 C 12.636719 10.757812 12.714844 10.714844 12.765625 10.636719 L 13.074219 10.171875 C 13.105469 10.128906 13.121094 10.078125 13.121094 10.023438 L 13.121094 9.460938 C 13.121094 9.394531 13.097656 9.332031 13.050781 9.28125 L 12.628906 8.8125 C 12.601562 8.78125 12.566406 8.757812 12.53125 8.742188 L 12.09375 8.566406 C 11.894531 8.484375 11.792969 8.335938 11.792969 8.117188 L 11.792969 7.828125 C 11.792969 7.738281 11.757812 7.667969 11.691406 7.613281 L 11.4375 7.417969 C 11.320312 7.328125 11.203125 7.332031 11.089844 7.433594 C 10.492188 7.980469 10.03125 8.625 9.703125 9.367188 C 9.378906 10.109375 9.214844 10.886719 9.214844 11.695312 C 9.214844 14.449219 11.140625 16.753906 13.714844 17.335938 Z M 13.601562 17 " fill-opacity="1" fill-rule="nonzero"/><path fill="#387c6d" d="M 11.335938 13.320312 L 12.035156 13.464844 C 12.082031 13.476562 12.125 13.5 12.15625 13.539062 L 12.316406 13.734375 C 12.355469 13.777344 12.402344 13.804688 12.460938 13.8125 L 12.902344 13.859375 C 12.949219 13.863281 12.988281 13.882812 13.023438 13.914062 L 13.3125 14.175781 C 13.359375 14.21875 13.386719 14.269531 13.386719 14.335938 C 13.386719 14.402344 13.359375 14.457031 13.308594 14.5 C 13.257812 14.542969 13.203125 14.5625 13.136719 14.550781 L 12.421875 14.449219 C 12.378906 14.441406 12.34375 14.425781 12.3125 14.402344 L 11.9375 14.097656 C 11.90625 14.070312 11.882812 14.035156 11.871094 13.996094 L 11.820312 13.851562 C 11.789062 13.753906 11.71875 13.703125 11.613281 13.703125 L 11.433594 13.703125 C 11.289062 13.703125 11.214844 13.632812 11.214844 13.484375 L 11.214844 13.320312 Z M 11.335938 13.320312 " fill-opacity="1" fill-rule="nonzero"/><path fill="#ffc93c" d="M 20.542969 15.925781 L 19.796875 15.175781 C 19.605469 15.425781 19.386719 15.644531 19.140625 15.835938 L 19.886719 16.582031 Z M 20.542969 15.925781 " fill-opacity="1" fill-rule="nonzero"/><path fill="#e9896a" d="M 23.195312 18.246094 L 20.867188 15.917969 C 20.761719 15.8125 20.65625 15.8125 20.550781 15.917969 L 19.878906 16.589844 C 19.773438 16.695312 19.773438 16.800781 19.878906 16.90625 L 22.207031 19.234375 C 22.34375 19.371094 22.507812 19.4375 22.699219 19.4375 C 22.894531 19.4375 23.058594 19.371094 23.195312 19.234375 C 23.332031 19.097656 23.402344 18.933594 23.402344 18.738281 C 23.402344 18.546875 23.332031 18.382812 23.195312 18.246094 Z M 23.195312 18.246094 " fill-opacity="1" fill-rule="nonzero"/><path fill="#e9896a" d="M 19.476562 10.316406 C 18.039062 8.875 15.699219 8.871094 14.265625 10.304688 C 12.832031 11.738281 12.835938 14.074219 14.277344 15.515625 C 15.71875 16.957031 18.054688 16.960938 19.488281 15.527344 C 20.921875 14.09375 20.917969 11.753906 19.476562 10.316406 Z M 18.769531 14.808594 C 18.515625 15.054688 18.226562 15.246094 17.902344 15.382812 C 17.574219 15.515625 17.234375 15.582031 16.878906 15.582031 C 16.527344 15.582031 16.1875 15.515625 15.859375 15.378906 C 15.53125 15.242188 15.246094 15.050781 14.996094 14.796875 C 13.953125 13.757812 13.949219 12.0625 14.984375 11.023438 C 15.238281 10.777344 15.527344 10.585938 15.855469 10.449219 C 16.179688 10.316406 16.519531 10.25 16.875 10.25 C 17.226562 10.25 17.566406 10.320312 17.894531 10.453125 C 18.222656 10.589844 18.507812 10.785156 18.757812 11.035156 C 19.007812 11.285156 19.203125 11.570312 19.339844 11.898438 C 19.472656 12.226562 19.542969 12.566406 19.542969 12.917969 C 19.542969 13.273438 19.476562 13.613281 19.34375 13.9375 C 19.207031 14.265625 19.015625 14.554688 18.769531 14.808594 Z M 18.769531 14.808594 " fill-opacity="1" fill-rule="nonzero"/></svg>