<svg xmlns="http://www.w3.org/2000/svg" xmlns:xlink="http://www.w3.org/1999/xlink" width="40" zoomAndPan="magnify" viewBox="0 0 30 30.000001" height="40" preserveAspectRatio="xMidYMid meet" version="1.0"><defs><clipPath id="75a579f5eb"><path d="M 0.484375 0 L 29.515625 0 L 29.515625 29.03125 L 0.484375 29.03125 Z M 0.484375 0 " clip-rule="nonzero"/></clipPath></defs><g clip-path="url(#75a579f5eb)"><path fill="#f0394c" d="M 29.515625 14.515625 C 29.515625 22.53125 23.015625 29.03125 15 29.03125 C 6.984375 29.03125 0.484375 22.53125 0.484375 14.515625 C 0.484375 6.5 6.984375 0 15 0 C 23.015625 0 29.515625 6.5 29.515625 14.515625 " fill-opacity="1" fill-rule="nonzero"/></g><path fill="#ffffff" d="M 18.9375 18.425781 L 11.0625 18.425781 L 11.0625 10.546875 L 18.9375 10.546875 L 18.9375 18.425781 " fill-opacity="1" fill-rule="nonzero"/><path fill="#ffffff" d="M 10.105469 9.59375 L 12.136719 9.59375 L 13.089844 8.636719 L 9.152344 8.636719 L 9.152344 12.578125 L 10.105469 11.621094 L 10.105469 9.59375 " fill-opacity="1" fill-rule="nonzero"/><path fill="#ffffff" d="M 19.953125 9.59375 L 19.953125 11.621094 L 20.910156 12.578125 L 20.910156 8.636719 L 16.96875 8.636719 L 17.925781 9.59375 L 19.953125 9.59375 " fill-opacity="1" fill-rule="nonzero"/><path fill="#ffffff" d="M 19.953125 19.4375 L 17.921875 19.4375 L 16.96875 20.394531 L 20.90625 20.394531 L 20.90625 16.457031 L 19.953125 17.410156 L 19.953125 19.4375 " fill-opacity="1" fill-rule="nonzero"/><path fill="#ffffff" d="M 10.046875 19.441406 L 10.046875 17.410156 L 9.089844 16.457031 L 9.089844 20.394531 L 13.03125 20.394531 L 12.078125 19.441406 L 10.046875 19.441406 " fill-opacity="1" fill-rule="nonzero"/></svg>