<svg xmlns="http://www.w3.org/2000/svg" xmlns:xlink="http://www.w3.org/1999/xlink" width="40" zoomAndPan="magnify" viewBox="0 0 30 30.000001" height="40" preserveAspectRatio="xMidYMid meet" version="1.0"><defs><clipPath id="5f380d9a48"><path d="M 0.484375 0 L 29.515625 0 L 29.515625 29.03125 L 0.484375 29.03125 Z M 0.484375 0 " clip-rule="nonzero"/></clipPath><clipPath id="fe7963865b"><path d="M 17 8 L 29.515625 8 L 29.515625 29.03125 L 17 29.03125 Z M 17 8 " clip-rule="nonzero"/></clipPath><clipPath id="84e15ff254"><path d="M 15 0 C 23.015625 0 29.515625 6.5 29.515625 14.515625 C 29.515625 22.53125 23.015625 29.03125 15 29.03125 C 6.984375 29.03125 0.484375 22.53125 0.484375 14.515625 C 0.484375 6.5 6.984375 0 15 0 Z M 15 0 " clip-rule="evenodd"/></clipPath><clipPath id="fe9106f932"><path d="M 22 20 L 29.515625 20 L 29.515625 29.03125 L 22 29.03125 Z M 22 20 " clip-rule="nonzero"/></clipPath><clipPath id="9a039e5a40"><path d="M 15 0 C 23.015625 0 29.515625 6.5 29.515625 14.515625 C 29.515625 22.53125 23.015625 29.03125 15 29.03125 C 6.984375 29.03125 0.484375 22.53125 0.484375 14.515625 C 0.484375 6.5 6.984375 0 15 0 Z M 15 0 " clip-rule="evenodd"/></clipPath><clipPath id="79b31984d0"><path d="M 12 16 L 29.515625 16 L 29.515625 29.03125 L 12 29.03125 Z M 12 16 " clip-rule="nonzero"/></clipPath><clipPath id="ca8a7dbcd7"><path d="M 15 0 C 23.015625 0 29.515625 6.5 29.515625 14.515625 C 29.515625 22.53125 23.015625 29.03125 15 29.03125 C 6.984375 29.03125 0.484375 22.53125 0.484375 14.515625 C 0.484375 6.5 6.984375 0 15 0 Z M 15 0 " clip-rule="evenodd"/></clipPath><clipPath id="d860fbe277"><path d="M 21 22 L 29.515625 22 L 29.515625 29.03125 L 21 29.03125 Z M 21 22 " clip-rule="nonzero"/></clipPath><clipPath id="453e9fde5a"><path d="M 15 0 C 23.015625 0 29.515625 6.5 29.515625 14.515625 C 29.515625 22.53125 23.015625 29.03125 15 29.03125 C 6.984375 29.03125 0.484375 22.53125 0.484375 14.515625 C 0.484375 6.5 6.984375 0 15 0 Z M 15 0 " clip-rule="evenodd"/></clipPath><clipPath id="28390a100b"><path d="M 22 22 L 29.515625 22 L 29.515625 29.03125 L 22 29.03125 Z M 22 22 " clip-rule="nonzero"/></clipPath><clipPath id="e89e152d7b"><path d="M 15 0 C 23.015625 0 29.515625 6.5 29.515625 14.515625 C 29.515625 22.53125 23.015625 29.03125 15 29.03125 C 6.984375 29.03125 0.484375 22.53125 0.484375 14.515625 C 0.484375 6.5 6.984375 0 15 0 Z M 15 0 " clip-rule="evenodd"/></clipPath><clipPath id="8032cf9ff0"><path d="M 8 16 L 29.515625 16 L 29.515625 29.03125 L 8 29.03125 Z M 8 16 " clip-rule="nonzero"/></clipPath><clipPath id="6ba49546b7"><path d="M 15 0 C 23.015625 0 29.515625 6.5 29.515625 14.515625 C 29.515625 22.53125 23.015625 29.03125 15 29.03125 C 6.984375 29.03125 0.484375 22.53125 0.484375 14.515625 C 0.484375 6.5 6.984375 0 15 0 Z M 15 0 " clip-rule="evenodd"/></clipPath><clipPath id="b00e662c4c"><path d="M 6 6 L 24 6 L 24 23 L 6 23 Z M 6 6 " clip-rule="nonzero"/></clipPath><clipPath id="a4b9c07078"><path d="M 15 0 C 23.015625 0 29.515625 6.5 29.515625 14.515625 C 29.515625 22.53125 23.015625 29.03125 15 29.03125 C 6.984375 29.03125 0.484375 22.53125 0.484375 14.515625 C 0.484375 6.5 6.984375 0 15 0 Z M 15 0 " clip-rule="evenodd"/></clipPath></defs><g clip-path="url(#5f380d9a48)"><path fill="#7bbb7f" d="M 15 0 C 23.015625 0 29.515625 6.5 29.515625 14.515625 C 29.515625 22.53125 23.015625 29.03125 15 29.03125 C 6.984375 29.03125 0.484375 22.53125 0.484375 14.515625 C 0.484375 6.5 6.984375 0 15 0 Z M 15 0 " fill-opacity="1" fill-rule="evenodd"/></g><g clip-path="url(#fe7963865b)"><g clip-path="url(#84e15ff254)"><path fill="#649767" d="M 17.042969 8.027344 L 53.683594 44.667969 L 53.890625 44.886719 L 54.085938 45.113281 L 54.269531 45.347656 L 54.4375 45.585938 L 54.59375 45.832031 L 54.738281 46.085938 L 54.867188 46.34375 L 54.984375 46.605469 L 55.089844 46.871094 L 55.179688 47.144531 L 55.257812 47.417969 L 55.320312 47.691406 L 55.371094 47.972656 L 55.410156 48.25 L 55.4375 48.53125 L 55.449219 48.8125 L 55.445312 49.097656 L 55.433594 49.378906 L 55.40625 49.660156 L 55.367188 49.9375 L 55.3125 50.21875 L 55.246094 50.492188 L 55.167969 50.765625 L 55.074219 51.035156 L 54.96875 51.300781 L 54.851562 51.5625 L 54.71875 51.820312 L 54.574219 52.070312 L 54.414062 52.316406 L 54.242188 52.558594 L 54.058594 52.789062 L 53.863281 53.015625 L 17.222656 16.375 L 17.417969 16.148438 L 17.601562 15.914062 L 17.773438 15.675781 L 17.933594 15.429688 L 18.078125 15.179688 L 18.207031 14.921875 L 18.328125 14.660156 L 18.433594 14.394531 L 18.523438 14.125 L 18.605469 13.851562 L 18.671875 13.574219 L 18.722656 13.296875 L 18.765625 13.019531 L 18.792969 12.738281 L 18.804688 12.453125 L 18.804688 12.171875 L 18.792969 11.890625 L 18.769531 11.609375 L 18.730469 11.328125 L 18.679688 11.050781 L 18.613281 10.773438 L 18.539062 10.5 L 18.445312 10.230469 L 18.34375 9.964844 L 18.226562 9.703125 L 18.097656 9.445312 L 17.953125 9.191406 L 17.796875 8.945312 L 17.628906 8.707031 L 17.445312 8.472656 L 17.25 8.246094 Z M 17.042969 8.027344 " fill-opacity="1" fill-rule="evenodd"/></g></g><g clip-path="url(#fe9106f932)"><g clip-path="url(#9a039e5a40)"><path fill="#649767" d="M 22.941406 20.929688 L 59.621094 57.609375 L 59.65625 57.652344 L 59.71875 57.738281 L 59.75 57.785156 L 59.820312 57.925781 L 59.867188 58.078125 L 59.878906 58.128906 L 59.894531 58.230469 L 59.898438 58.28125 L 59.898438 58.386719 L 59.894531 58.4375 L 59.886719 58.488281 L 59.878906 58.542969 L 59.867188 58.59375 L 59.851562 58.644531 L 59.835938 58.691406 L 59.820312 58.742188 L 59.75 58.882812 L 59.71875 58.929688 L 59.65625 59.015625 L 59.621094 59.058594 L 59.582031 59.097656 L 22.941406 22.457031 L 22.980469 22.417969 L 23.015625 22.375 L 23.078125 22.289062 L 23.132812 22.195312 L 23.15625 22.148438 L 23.175781 22.101562 L 23.195312 22.050781 L 23.226562 21.949219 L 23.238281 21.898438 L 23.246094 21.847656 L 23.253906 21.746094 L 23.257812 21.691406 L 23.246094 21.539062 L 23.238281 21.484375 L 23.226562 21.433594 L 23.210938 21.386719 L 23.195312 21.335938 L 23.175781 21.285156 L 23.15625 21.238281 L 23.132812 21.191406 L 23.078125 21.097656 L 23.015625 21.011719 L 22.980469 20.96875 Z M 22.941406 20.929688 " fill-opacity="1" fill-rule="evenodd"/></g></g><g clip-path="url(#79b31984d0)"><g clip-path="url(#ca8a7dbcd7)"><path fill="#649767" d="M 16.855469 16.738281 L 53.496094 53.378906 L 53.390625 53.476562 L 53.285156 53.566406 L 53.175781 53.65625 L 53.066406 53.742188 L 52.953125 53.828125 L 52.835938 53.910156 L 52.722656 53.988281 L 52.605469 54.0625 L 52.363281 54.203125 L 52.242188 54.269531 L 52.117188 54.335938 L 51.867188 54.453125 L 51.738281 54.507812 L 51.480469 54.609375 L 51.351562 54.65625 L 51.21875 54.699219 L 51.085938 54.738281 L 50.949219 54.773438 L 50.816406 54.808594 L 50.679688 54.839844 L 50.542969 54.867188 L 50.402344 54.890625 L 50.265625 54.910156 L 50.125 54.929688 L 49.703125 54.964844 L 49.558594 54.96875 L 49.417969 54.96875 L 12.777344 18.328125 L 12.917969 18.328125 L 13.0625 18.320312 L 13.203125 18.3125 L 13.484375 18.289062 L 13.625 18.269531 L 13.761719 18.25 L 14.171875 18.167969 L 14.308594 18.132812 L 14.441406 18.097656 L 14.578125 18.054688 L 14.707031 18.011719 L 14.839844 17.96875 L 15.097656 17.867188 L 15.226562 17.8125 L 15.351562 17.753906 L 15.601562 17.628906 L 15.722656 17.5625 L 15.84375 17.492188 L 15.960938 17.421875 L 16.082031 17.34375 L 16.195312 17.265625 L 16.3125 17.1875 L 16.421875 17.101562 L 16.535156 17.015625 L 16.644531 16.925781 L 16.75 16.835938 Z M 16.855469 16.738281 " fill-opacity="1" fill-rule="evenodd"/></g></g><g clip-path="url(#d860fbe277)"><g clip-path="url(#453e9fde5a)"><path fill="#649767" d="M 22.175781 22.773438 L 58.816406 59.414062 L 58.761719 59.414062 L 58.707031 59.410156 L 58.65625 59.402344 L 58.601562 59.394531 L 58.550781 59.382812 L 58.449219 59.351562 L 58.355469 59.3125 L 58.304688 59.289062 L 58.261719 59.261719 L 58.214844 59.234375 L 58.171875 59.203125 L 58.132812 59.171875 L 58.089844 59.136719 L 21.410156 22.457031 L 21.449219 22.496094 L 21.488281 22.53125 L 21.574219 22.59375 L 21.621094 22.621094 L 21.664062 22.648438 L 21.710938 22.671875 L 21.761719 22.691406 L 21.808594 22.710938 L 21.910156 22.742188 L 21.960938 22.753906 L 22.015625 22.761719 L 22.066406 22.769531 L 22.121094 22.773438 Z M 22.175781 22.773438 " fill-opacity="1" fill-rule="evenodd"/></g></g><g clip-path="url(#28390a100b)"><g clip-path="url(#e89e152d7b)"><path fill="#649767" d="M 22.941406 22.457031 L 59.582031 59.097656 L 59.542969 59.136719 L 59.503906 59.171875 L 59.417969 59.234375 L 59.371094 59.261719 L 59.328125 59.289062 L 59.28125 59.3125 L 59.230469 59.332031 L 59.183594 59.351562 L 59.082031 59.382812 L 59.03125 59.394531 L 58.976562 59.402344 L 58.925781 59.410156 L 58.871094 59.414062 L 58.816406 59.414062 L 22.175781 22.773438 L 22.230469 22.773438 L 22.28125 22.769531 L 22.335938 22.761719 L 22.386719 22.753906 L 22.441406 22.742188 L 22.492188 22.726562 L 22.539062 22.710938 L 22.589844 22.691406 L 22.636719 22.671875 L 22.683594 22.648438 L 22.777344 22.59375 L 22.820312 22.5625 L 22.859375 22.53125 L 22.902344 22.496094 Z M 22.941406 22.457031 " fill-opacity="1" fill-rule="evenodd"/></g></g><g clip-path="url(#8032cf9ff0)"><g clip-path="url(#6ba49546b7)"><path fill="#649767" d="M 12.777344 18.328125 L 49.417969 54.96875 L 49.265625 54.96875 L 49.117188 54.960938 L 48.964844 54.953125 L 48.816406 54.941406 L 48.667969 54.925781 L 48.523438 54.902344 L 48.375 54.878906 L 48.230469 54.855469 L 48.085938 54.824219 L 47.941406 54.789062 L 47.660156 54.710938 L 47.519531 54.667969 L 47.378906 54.617188 L 47.242188 54.566406 L 47.105469 54.511719 L 46.972656 54.457031 L 46.835938 54.394531 L 46.707031 54.328125 L 46.574219 54.261719 L 46.445312 54.191406 L 46.320312 54.117188 L 46.070312 53.960938 L 45.828125 53.789062 L 45.710938 53.699219 L 45.59375 53.605469 L 45.367188 53.410156 L 45.257812 53.308594 L 8.617188 16.664062 L 8.726562 16.769531 L 8.953125 16.964844 L 9.070312 17.058594 L 9.1875 17.148438 L 9.308594 17.234375 L 9.429688 17.316406 L 9.554688 17.398438 L 9.679688 17.476562 L 9.804688 17.550781 L 9.933594 17.621094 L 10.066406 17.6875 L 10.195312 17.753906 L 10.328125 17.8125 L 10.464844 17.871094 L 10.601562 17.925781 L 10.738281 17.976562 L 10.878906 18.023438 L 11.015625 18.070312 L 11.160156 18.109375 L 11.300781 18.148438 L 11.445312 18.183594 L 11.734375 18.238281 L 11.882812 18.261719 L 12.027344 18.28125 L 12.175781 18.300781 L 12.324219 18.3125 L 12.472656 18.320312 L 12.625 18.328125 Z M 12.777344 18.328125 " fill-opacity="1" fill-rule="evenodd"/></g></g><g clip-path="url(#b00e662c4c)"><g clip-path="url(#a4b9c07078)"><path fill="#649767" d="M 17.042969 8.027344 C 19.335938 10.316406 19.394531 14.007812 17.222656 16.375 L 18.253906 17.40625 C 18.417969 17.304688 18.613281 17.25 18.8125 17.25 C 19.101562 17.25 19.375 17.363281 19.578125 17.566406 L 22.941406 20.929688 C 23.363281 21.351562 23.363281 22.035156 22.941406 22.457031 C 22.738281 22.660156 22.464844 22.773438 22.175781 22.773438 C 21.886719 22.773438 21.613281 22.660156 21.410156 22.457031 L 18.046875 19.097656 C 17.84375 18.890625 17.730469 18.621094 17.730469 18.332031 C 17.730469 18.128906 17.785156 17.9375 17.886719 17.769531 L 16.855469 16.738281 C 15.742188 17.765625 14.300781 18.328125 12.777344 18.328125 C 11.164062 18.328125 9.648438 17.699219 8.507812 16.5625 C 6.15625 14.207031 6.15625 10.378906 8.507812 8.027344 C 9.648438 6.886719 11.164062 6.257812 12.777344 6.257812 C 14.386719 6.257812 15.902344 6.886719 17.042969 8.027344 Z M 17.042969 8.027344 " fill-opacity="1" fill-rule="evenodd"/></g></g><path fill="#ffffff" d="M 16.214844 15.707031 L 9.335938 15.707031 C 9.074219 15.707031 8.859375 15.496094 8.859375 15.230469 L 8.859375 12.359375 C 9.648438 12.820312 10.796875 13.265625 11.800781 13.433594 L 11.800781 13.539062 C 11.800781 13.679688 11.851562 13.816406 11.945312 13.925781 L 12.339844 14.371094 C 12.449219 14.496094 12.609375 14.566406 12.777344 14.566406 C 12.941406 14.566406 13.101562 14.496094 13.210938 14.371094 L 13.605469 13.925781 C 13.699219 13.820312 13.75 13.679688 13.75 13.539062 L 13.75 13.4375 C 14.800781 13.273438 15.945312 12.828125 16.691406 12.351562 L 16.691406 15.230469 C 16.691406 15.496094 16.476562 15.707031 16.214844 15.707031 Z M 8.859375 11.75 L 8.859375 10.710938 C 8.859375 10.449219 9.074219 10.234375 9.335938 10.234375 L 16.214844 10.234375 C 16.476562 10.234375 16.691406 10.449219 16.691406 10.710938 L 16.691406 11.722656 C 16.082031 12.199219 14.8125 12.75 13.75 12.921875 L 13.75 12.765625 C 13.75 12.445312 13.492188 12.183594 13.171875 12.183594 L 12.382812 12.183594 C 12.0625 12.183594 11.800781 12.445312 11.800781 12.765625 L 11.800781 12.921875 C 10.816406 12.753906 9.558594 12.214844 8.859375 11.75 Z M 8.859375 11.75 " fill-opacity="1" fill-rule="evenodd"/><path fill="#ffffff" d="M 12.777344 14.246094 C 12.703125 14.246094 12.632812 14.210938 12.582031 14.15625 L 12.1875 13.710938 C 12.144531 13.664062 12.125 13.601562 12.125 13.539062 L 12.125 12.765625 C 12.125 12.621094 12.238281 12.507812 12.382812 12.507812 L 13.171875 12.507812 C 13.3125 12.507812 13.429688 12.621094 13.429688 12.765625 L 13.429688 13.539062 C 13.429688 13.601562 13.40625 13.664062 13.363281 13.710938 L 12.96875 14.15625 C 12.921875 14.210938 12.847656 14.246094 12.777344 14.246094 Z M 12.777344 14.246094 " fill-opacity="1" fill-rule="evenodd"/><path fill="#ffffff" d="M 14.4375 10.753906 L 11.113281 10.753906 C 10.96875 10.753906 10.855469 10.636719 10.855469 10.496094 L 10.855469 9.816406 C 10.855469 9.296875 11.273438 8.878906 11.789062 8.878906 L 13.761719 8.878906 C 14.277344 8.878906 14.699219 9.296875 14.699219 9.816406 L 14.699219 10.496094 C 14.695312 10.636719 14.582031 10.753906 14.4375 10.753906 Z M 11.371094 10.234375 L 14.179688 10.234375 L 14.179688 9.816406 C 14.179688 9.582031 13.992188 9.394531 13.761719 9.394531 L 11.789062 9.394531 C 11.558594 9.394531 11.371094 9.582031 11.371094 9.816406 Z M 11.371094 10.234375 " fill-opacity="1" fill-rule="evenodd"/><path fill="#ffffff" d="M 12.777344 18.328125 C 11.164062 18.328125 9.648438 17.699219 8.507812 16.5625 C 6.15625 14.207031 6.15625 10.378906 8.507812 8.027344 C 9.648438 6.886719 11.164062 6.257812 12.777344 6.257812 C 14.386719 6.257812 15.902344 6.886719 17.042969 8.027344 C 19.394531 10.378906 19.394531 14.207031 17.042969 16.5625 C 15.902344 17.699219 14.386719 18.328125 12.777344 18.328125 Z M 12.777344 6.773438 C 11.300781 6.773438 9.914062 7.347656 8.875 8.390625 C 6.722656 10.542969 6.722656 14.042969 8.875 16.195312 C 9.914062 17.238281 11.300781 17.8125 12.777344 17.8125 C 14.25 17.8125 15.636719 17.238281 16.679688 16.195312 C 18.828125 14.042969 18.828125 10.542969 16.679688 8.390625 C 15.636719 7.347656 14.25 6.773438 12.777344 6.773438 Z M 12.777344 6.773438 " fill-opacity="1" fill-rule="evenodd"/><path fill="#ffffff" d="M 18.230469 18.007812 C 18.164062 18.007812 18.097656 17.980469 18.046875 17.929688 L 16.679688 16.5625 C 16.578125 16.460938 16.578125 16.296875 16.679688 16.195312 C 16.777344 16.09375 16.941406 16.09375 17.042969 16.195312 L 18.414062 17.566406 C 18.515625 17.667969 18.515625 17.828125 18.414062 17.929688 C 18.363281 17.980469 18.296875 18.007812 18.230469 18.007812 Z M 18.230469 18.007812 " fill-opacity="1" fill-rule="evenodd"/><path fill="#ffffff" d="M 22.175781 22.773438 C 21.886719 22.773438 21.613281 22.660156 21.410156 22.457031 L 18.046875 19.097656 C 17.84375 18.890625 17.730469 18.621094 17.730469 18.332031 C 17.730469 18.042969 17.84375 17.769531 18.046875 17.566406 C 18.25 17.363281 18.523438 17.25 18.8125 17.25 C 19.101562 17.25 19.375 17.363281 19.578125 17.566406 L 22.941406 20.929688 C 23.363281 21.351562 23.363281 22.035156 22.941406 22.457031 C 22.738281 22.660156 22.464844 22.773438 22.175781 22.773438 Z M 22.175781 22.773438 " fill-opacity="1" fill-rule="evenodd"/></svg>