<svg xmlns="http://www.w3.org/2000/svg" xmlns:xlink="http://www.w3.org/1999/xlink" width="40" zoomAndPan="magnify" viewBox="0 0 30 30.000001" height="40" preserveAspectRatio="xMidYMid meet" version="1.0"><defs><clipPath id="ecfadd3116"><path d="M 0.484375 0 L 29.515625 0 L 29.515625 29.03125 L 0.484375 29.03125 Z M 0.484375 0 " clip-rule="nonzero"/></clipPath></defs><g clip-path="url(#ecfadd3116)"><path fill="#1c3b5c" d="M 29.515625 14.515625 C 29.515625 15.46875 29.421875 16.414062 29.238281 17.347656 C 29.050781 18.28125 28.777344 19.191406 28.410156 20.070312 C 28.046875 20.953125 27.597656 21.789062 27.070312 22.582031 C 26.539062 23.375 25.9375 24.105469 25.265625 24.78125 C 24.589844 25.453125 23.855469 26.054688 23.066406 26.585938 C 22.273438 27.117188 21.4375 27.5625 20.554688 27.925781 C 19.675781 28.292969 18.765625 28.566406 17.832031 28.753906 C 16.898438 28.9375 15.953125 29.03125 15 29.03125 C 14.046875 29.03125 13.101562 28.9375 12.167969 28.753906 C 11.234375 28.566406 10.324219 28.292969 9.445312 27.925781 C 8.5625 27.5625 7.726562 27.117188 6.933594 26.585938 C 6.144531 26.054688 5.410156 25.453125 4.734375 24.78125 C 4.0625 24.105469 3.460938 23.375 2.929688 22.582031 C 2.402344 21.789062 1.953125 20.953125 1.589844 20.070312 C 1.222656 19.191406 0.949219 18.28125 0.761719 17.347656 C 0.578125 16.414062 0.484375 15.46875 0.484375 14.515625 C 0.484375 13.5625 0.578125 12.617188 0.761719 11.683594 C 0.949219 10.75 1.222656 9.839844 1.589844 8.960938 C 1.953125 8.082031 2.402344 7.242188 2.929688 6.453125 C 3.460938 5.660156 4.0625 4.925781 4.734375 4.25 C 5.410156 3.578125 6.144531 2.976562 6.933594 2.445312 C 7.726562 1.917969 8.5625 1.46875 9.445312 1.105469 C 10.324219 0.738281 11.234375 0.464844 12.167969 0.277344 C 13.101562 0.09375 14.046875 0 15 0 C 15.953125 0 16.898438 0.09375 17.832031 0.277344 C 18.765625 0.464844 19.675781 0.738281 20.554688 1.105469 C 21.4375 1.46875 22.273438 1.917969 23.066406 2.445312 C 23.855469 2.976562 24.589844 3.578125 25.265625 4.25 C 25.9375 4.925781 26.539062 5.660156 27.070312 6.453125 C 27.597656 7.242188 28.046875 8.082031 28.410156 8.960938 C 28.777344 9.839844 29.050781 10.75 29.238281 11.683594 C 29.421875 12.617188 29.515625 13.5625 29.515625 14.515625 Z M 29.515625 14.515625 " fill-opacity="1" fill-rule="nonzero"/></g><path fill="#e1e3e8" d="M 15.789062 4.253906 L 15.855469 4.261719 L 15.886719 4.261719 L 15.921875 3.8125 C 15.570312 3.796875 15.210938 3.769531 14.859375 3.773438 L 14.722656 3.773438 L 14.652344 3.777344 L 14.644531 3.777344 L 14.660156 4.230469 L 14.664062 4.230469 L 14.730469 4.226562 L 14.867188 4.226562 C 15.175781 4.222656 15.480469 4.234375 15.789062 4.253906 Z M 13.261719 3.910156 L 13.335938 4.359375 L 13.300781 4.363281 L 13.113281 4.398438 L 13.046875 4.410156 L 12.921875 4.433594 L 12.859375 4.449219 L 12.734375 4.472656 L 12.609375 4.503906 L 12.550781 4.519531 L 12.488281 4.535156 L 12.46875 4.539062 L 12.355469 4.097656 L 12.375 4.09375 L 12.441406 4.078125 L 12.503906 4.0625 L 12.636719 4.03125 L 12.699219 4.019531 L 12.832031 3.988281 L 13.03125 3.953125 L 13.09375 3.941406 L 13.226562 3.917969 Z M 11.03125 4.527344 L 11.203125 4.949219 L 11.164062 4.960938 L 11.105469 4.984375 L 11.046875 5.011719 L 10.992188 5.035156 L 10.875 5.082031 L 10.816406 5.109375 L 10.761719 5.132812 L 10.703125 5.160156 L 10.648438 5.1875 L 10.589844 5.214844 L 10.480469 5.269531 L 10.421875 5.296875 L 10.390625 5.3125 L 10.1875 4.90625 L 10.222656 4.890625 L 10.28125 4.859375 L 10.335938 4.832031 L 10.398438 4.804688 L 10.632812 4.695312 L 10.695312 4.667969 L 10.753906 4.640625 L 10.8125 4.617188 L 10.875 4.589844 L 10.933594 4.566406 L 10.996094 4.542969 Z M 8.988281 5.609375 L 9.242188 5.984375 L 8.9375 6.195312 L 8.886719 6.234375 L 8.839844 6.269531 L 8.789062 6.308594 L 8.738281 6.34375 L 8.691406 6.382812 L 8.640625 6.421875 L 8.59375 6.460938 L 8.546875 6.496094 L 8.53125 6.511719 L 8.242188 6.160156 L 8.261719 6.144531 L 8.3125 6.105469 L 8.363281 6.0625 L 8.617188 5.867188 L 8.671875 5.832031 L 8.722656 5.792969 L 8.777344 5.753906 L 8.828125 5.71875 L 8.882812 5.679688 L 8.933594 5.644531 Z M 7.222656 7.097656 L 7.550781 7.414062 L 7.503906 7.460938 L 7.460938 7.507812 L 7.417969 7.550781 L 7.378906 7.597656 L 7.335938 7.644531 L 7.296875 7.691406 L 7.253906 7.734375 L 7.214844 7.78125 L 7.171875 7.828125 L 7.132812 7.875 L 7.09375 7.925781 L 6.976562 8.066406 L 6.964844 8.078125 L 6.609375 7.796875 L 6.621094 7.78125 L 6.664062 7.734375 L 6.703125 7.683594 L 6.746094 7.632812 L 6.785156 7.585938 L 6.871094 7.484375 L 6.957031 7.390625 L 7 7.339844 L 7.171875 7.152344 L 7.21875 7.105469 Z M 5.8125 8.933594 L 6.203125 9.167969 L 6.191406 9.183594 L 6.160156 9.234375 L 6.097656 9.34375 L 6.066406 9.394531 L 6.003906 9.503906 L 5.976562 9.558594 L 5.945312 9.613281 L 5.917969 9.667969 L 5.886719 9.722656 L 5.859375 9.777344 L 5.828125 9.832031 L 5.800781 9.890625 L 5.773438 9.945312 L 5.367188 9.746094 L 5.367188 9.742188 L 5.394531 9.683594 L 5.425781 9.625 L 5.457031 9.570312 L 5.484375 9.511719 L 5.515625 9.453125 L 5.546875 9.398438 L 5.609375 9.28125 L 5.640625 9.226562 L 5.675781 9.167969 L 5.738281 9.058594 L 5.773438 9.003906 L 5.804688 8.945312 Z M 4.828125 11.027344 L 5.257812 11.171875 L 5.246094 11.21875 L 5.222656 11.277344 L 5.203125 11.339844 L 5.183594 11.398438 L 5.167969 11.457031 L 5.148438 11.519531 L 5.128906 11.578125 L 5.109375 11.640625 L 5.09375 11.703125 L 5.078125 11.761719 L 5.058594 11.824219 L 5.042969 11.886719 L 5.027344 11.945312 L 5.007812 12.023438 L 4.566406 11.914062 L 4.585938 11.835938 L 4.605469 11.769531 L 4.621094 11.707031 L 4.640625 11.640625 L 4.65625 11.578125 L 4.675781 11.511719 L 4.792969 11.136719 L 4.816406 11.074219 Z M 4.320312 13.28125 L 4.769531 13.332031 L 4.769531 13.335938 L 4.761719 13.402344 L 4.757812 13.46875 L 4.75 13.53125 L 4.742188 13.597656 L 4.738281 13.664062 L 4.734375 13.726562 L 4.730469 13.792969 L 4.722656 13.859375 L 4.71875 13.925781 L 4.714844 13.988281 L 4.714844 14.054688 L 4.707031 14.1875 L 4.707031 14.21875 L 4.253906 14.207031 L 4.253906 14.171875 L 4.257812 14.105469 L 4.265625 13.964844 L 4.265625 13.898438 L 4.273438 13.828125 L 4.277344 13.761719 L 4.28125 13.691406 L 4.285156 13.625 L 4.292969 13.558594 L 4.296875 13.488281 L 4.304688 13.421875 L 4.3125 13.351562 L 4.320312 13.285156 Z M 4.300781 15.59375 L 4.753906 15.546875 L 4.757812 15.574219 L 4.761719 15.636719 L 4.769531 15.703125 L 4.777344 15.765625 L 4.785156 15.832031 L 4.792969 15.894531 L 4.804688 15.960938 L 4.820312 16.085938 L 4.832031 16.152344 L 4.84375 16.214844 L 4.851562 16.277344 L 4.863281 16.34375 L 4.875 16.40625 L 4.878906 16.425781 L 4.433594 16.511719 L 4.429688 16.488281 L 4.382812 16.222656 L 4.375 16.15625 L 4.363281 16.089844 L 4.355469 16.023438 L 4.34375 15.957031 L 4.335938 15.886719 L 4.3125 15.6875 L 4.304688 15.617188 Z M 4.777344 17.859375 L 5.207031 17.714844 L 5.222656 17.761719 L 5.246094 17.820312 L 5.265625 17.882812 L 5.304688 18 L 5.351562 18.117188 L 5.371094 18.175781 L 5.394531 18.238281 L 5.417969 18.292969 L 5.519531 18.546875 L 5.101562 18.726562 L 5.09375 18.703125 L 5.070312 18.644531 L 5.042969 18.582031 L 5.019531 18.523438 L 4.972656 18.398438 L 4.949219 18.339844 L 4.878906 18.152344 L 4.855469 18.09375 L 4.816406 17.96875 L 4.792969 17.90625 Z M 5.730469 19.964844 L 6.121094 19.734375 L 6.128906 19.75 L 6.191406 19.859375 L 6.226562 19.910156 L 6.257812 19.964844 L 6.292969 20.015625 L 6.324219 20.070312 L 6.394531 20.171875 L 6.425781 20.222656 L 6.460938 20.277344 L 6.601562 20.480469 L 6.234375 20.742188 L 6.195312 20.691406 L 6.15625 20.636719 L 6.121094 20.582031 L 6.085938 20.53125 L 6.015625 20.421875 L 5.976562 20.367188 L 5.941406 20.3125 L 5.910156 20.257812 L 5.804688 20.09375 L 5.773438 20.039062 L 5.738281 19.980469 Z M 7.109375 21.820312 L 7.441406 21.511719 L 7.460938 21.53125 L 7.503906 21.578125 L 7.546875 21.621094 L 7.589844 21.667969 L 7.632812 21.710938 L 7.675781 21.757812 L 7.804688 21.886719 L 7.851562 21.929688 L 7.894531 21.972656 L 7.941406 22.015625 L 7.984375 22.058594 L 8.03125 22.097656 L 8.074219 22.136719 L 7.765625 22.472656 L 7.722656 22.433594 L 7.675781 22.386719 L 7.582031 22.300781 L 7.535156 22.253906 L 7.488281 22.210938 L 7.445312 22.164062 L 7.398438 22.121094 L 7.351562 22.074219 L 7.308594 22.027344 L 7.261719 21.980469 L 7.21875 21.933594 L 7.128906 21.84375 Z M 8.851562 23.339844 L 9.113281 22.964844 L 9.140625 22.988281 L 9.242188 23.058594 L 9.292969 23.089844 L 9.34375 23.125 L 9.398438 23.160156 L 9.449219 23.191406 L 9.5 23.226562 L 9.554688 23.257812 L 9.605469 23.292969 L 9.660156 23.324219 L 9.710938 23.355469 L 9.820312 23.417969 L 9.859375 23.441406 L 9.632812 23.835938 L 9.589844 23.8125 L 9.535156 23.777344 L 9.480469 23.746094 L 9.425781 23.710938 L 9.367188 23.679688 L 9.148438 23.539062 L 9.097656 23.503906 L 8.988281 23.433594 L 8.933594 23.394531 L 8.882812 23.359375 Z M 10.882812 24.453125 L 11.054688 24.03125 L 11.105469 24.054688 L 11.28125 24.125 L 11.339844 24.144531 L 11.457031 24.191406 L 11.519531 24.210938 L 11.578125 24.234375 L 11.695312 24.273438 L 11.757812 24.292969 L 11.886719 24.335938 L 11.75 24.769531 L 11.738281 24.765625 L 11.613281 24.726562 L 11.550781 24.703125 L 11.488281 24.683594 L 11.425781 24.660156 L 11.363281 24.640625 L 11.300781 24.617188 L 11.242188 24.59375 L 11.117188 24.546875 L 11.058594 24.523438 L 10.996094 24.5 L 10.933594 24.472656 Z M 13.101562 25.101562 L 13.179688 24.65625 L 13.238281 24.664062 L 13.300781 24.675781 L 13.367188 24.6875 L 13.429688 24.695312 L 13.492188 24.707031 L 13.558594 24.714844 L 13.621094 24.722656 L 13.6875 24.730469 L 13.75 24.738281 L 13.816406 24.746094 L 13.878906 24.753906 L 14.011719 24.769531 L 14.058594 24.773438 L 14.019531 25.226562 L 13.96875 25.21875 L 13.898438 25.214844 L 13.765625 25.199219 L 13.695312 25.191406 L 13.628906 25.183594 L 13.5625 25.171875 L 13.429688 25.15625 L 13.363281 25.144531 L 13.292969 25.132812 L 13.226562 25.125 L 13.160156 25.113281 Z M 15.40625 25.261719 L 15.390625 24.808594 L 15.394531 24.808594 L 15.726562 24.789062 L 15.789062 24.785156 L 15.855469 24.78125 L 15.921875 24.773438 L 15.984375 24.769531 L 16.117188 24.753906 L 16.179688 24.746094 L 16.246094 24.738281 L 16.273438 24.738281 L 16.332031 25.1875 L 16.300781 25.191406 L 16.230469 25.199219 L 16.097656 25.214844 L 16.027344 25.21875 L 15.960938 25.226562 L 15.894531 25.230469 L 15.824219 25.238281 L 15.757812 25.242188 L 15.6875 25.246094 L 15.621094 25.25 L 15.480469 25.257812 L 15.414062 25.261719 Z M 17.695312 24.925781 L 17.578125 24.488281 L 17.632812 24.472656 L 17.695312 24.457031 L 17.753906 24.441406 L 17.816406 24.425781 L 17.878906 24.40625 L 17.9375 24.386719 L 18 24.371094 L 18.058594 24.351562 L 18.121094 24.332031 L 18.238281 24.292969 L 18.300781 24.273438 L 18.429688 24.230469 L 18.582031 24.65625 L 18.570312 24.660156 L 18.507812 24.683594 L 18.445312 24.703125 L 18.382812 24.726562 L 18.132812 24.804688 L 18.066406 24.824219 L 18.003906 24.84375 L 17.941406 24.859375 L 17.875 24.878906 L 17.8125 24.894531 L 17.75 24.914062 Z M 19.859375 24.109375 L 19.652344 23.707031 L 19.683594 23.6875 L 19.738281 23.660156 L 19.796875 23.632812 L 19.851562 23.601562 L 19.90625 23.574219 L 20.015625 23.511719 L 20.066406 23.480469 L 20.230469 23.386719 L 20.28125 23.355469 L 20.390625 23.292969 L 20.425781 23.269531 L 20.664062 23.652344 L 20.625 23.679688 L 20.570312 23.710938 L 20.515625 23.746094 L 20.460938 23.777344 L 20.40625 23.8125 L 20.347656 23.84375 L 20.292969 23.875 L 20.234375 23.90625 L 20.179688 23.941406 L 20.0625 24.003906 L 20.007812 24.03125 L 19.890625 24.09375 Z M 21.796875 22.847656 L 21.507812 22.496094 L 21.546875 22.464844 L 21.640625 22.386719 L 21.6875 22.34375 L 21.78125 22.265625 L 21.875 22.179688 L 21.921875 22.140625 L 21.964844 22.097656 L 22.011719 22.058594 L 22.054688 22.015625 L 22.101562 21.972656 L 22.167969 21.90625 L 22.488281 22.230469 L 22.460938 22.253906 L 22.414062 22.300781 L 22.320312 22.386719 L 22.273438 22.433594 L 22.226562 22.476562 L 22.175781 22.519531 L 22.082031 22.605469 L 22.03125 22.648438 L 21.984375 22.691406 L 21.933594 22.730469 L 21.886719 22.773438 L 21.835938 22.8125 Z M 23.417969 21.199219 L 23.0625 20.917969 L 23.097656 20.875 L 23.136719 20.828125 L 23.171875 20.777344 L 23.210938 20.730469 L 23.246094 20.679688 L 23.285156 20.628906 L 23.320312 20.578125 L 23.359375 20.53125 L 23.535156 20.277344 L 23.570312 20.222656 L 23.585938 20.203125 L 23.964844 20.449219 L 23.945312 20.476562 L 23.910156 20.53125 L 23.875 20.582031 L 23.835938 20.636719 L 23.800781 20.691406 L 23.761719 20.742188 L 23.726562 20.792969 L 23.6875 20.847656 L 23.609375 20.949219 L 23.574219 21.003906 L 23.53125 21.054688 L 23.453125 21.15625 Z M 24.65625 19.246094 L 24.246094 19.046875 L 24.277344 18.984375 L 24.304688 18.925781 L 24.332031 18.871094 L 24.359375 18.8125 L 24.382812 18.757812 L 24.410156 18.699219 L 24.433594 18.640625 L 24.460938 18.585938 L 24.578125 18.292969 L 24.601562 18.238281 L 24.601562 18.234375 L 25.027344 18.394531 L 25.023438 18.398438 L 24.976562 18.523438 L 24.953125 18.582031 L 24.925781 18.644531 L 24.902344 18.703125 L 24.875 18.765625 L 24.851562 18.824219 L 24.796875 18.941406 L 24.769531 19.003906 L 24.6875 19.179688 L 24.65625 19.238281 Z M 25.441406 17.070312 L 25 16.964844 L 25.015625 16.90625 L 25.027344 16.84375 L 25.058594 16.71875 L 25.082031 16.59375 L 25.097656 16.53125 L 25.132812 16.34375 L 25.144531 16.277344 L 25.152344 16.214844 L 25.164062 16.152344 L 25.171875 16.09375 L 25.621094 16.164062 L 25.613281 16.222656 L 25.542969 16.621094 L 25.527344 16.6875 L 25.515625 16.75 L 25.484375 16.882812 L 25.472656 16.949219 L 25.457031 17.011719 Z M 25.742188 14.777344 L 25.289062 14.769531 L 25.292969 14.71875 L 25.292969 14.320312 L 25.289062 14.253906 L 25.289062 14.1875 L 25.28125 14.054688 L 25.28125 13.988281 L 25.277344 13.925781 L 25.273438 13.882812 L 25.726562 13.851562 L 25.726562 13.898438 L 25.734375 13.964844 L 25.734375 14.035156 L 25.738281 14.105469 L 25.742188 14.171875 L 25.742188 14.242188 L 25.746094 14.3125 L 25.746094 14.726562 Z M 25.550781 12.472656 L 25.105469 12.5625 L 25.097656 12.507812 L 25.082031 12.445312 L 25.058594 12.320312 L 25.027344 12.195312 L 25.015625 12.132812 L 24.96875 11.945312 L 24.953125 11.886719 L 24.9375 11.824219 L 24.917969 11.761719 L 24.902344 11.703125 L 24.902344 11.699219 L 25.335938 11.570312 L 25.339844 11.578125 L 25.355469 11.640625 L 25.375 11.707031 L 25.390625 11.769531 L 25.40625 11.835938 L 25.425781 11.898438 L 25.441406 11.964844 L 25.457031 12.027344 L 25.472656 12.09375 L 25.484375 12.15625 L 25.515625 12.289062 L 25.527344 12.355469 L 25.542969 12.417969 Z M 24.871094 10.261719 L 24.457031 10.445312 L 24.433594 10.398438 L 24.410156 10.339844 L 24.382812 10.285156 L 24.359375 10.226562 L 24.332031 10.171875 L 24.304688 10.113281 L 24.277344 10.058594 L 24.25 10 L 24.195312 9.890625 L 24.167969 9.832031 L 24.136719 9.777344 L 24.109375 9.722656 L 24.078125 9.667969 L 24.070312 9.644531 L 24.46875 9.429688 L 24.480469 9.453125 L 24.511719 9.511719 L 24.539062 9.570312 L 24.570312 9.625 L 24.601562 9.683594 L 24.65625 9.800781 L 24.6875 9.859375 L 24.769531 10.035156 L 24.796875 10.097656 L 24.851562 10.214844 Z M 23.730469 8.253906 L 23.363281 8.515625 L 23.359375 8.511719 L 23.320312 8.460938 L 23.285156 8.410156 L 23.246094 8.359375 L 23.210938 8.3125 L 23.171875 8.261719 L 23.136719 8.210938 L 23.058594 8.117188 L 23.019531 8.066406 L 22.902344 7.925781 L 22.863281 7.875 L 22.824219 7.828125 L 22.816406 7.820312 L 23.15625 7.523438 L 23.167969 7.535156 L 23.210938 7.585938 L 23.25 7.632812 L 23.292969 7.683594 L 23.332031 7.734375 L 23.375 7.78125 L 23.53125 7.984375 L 23.574219 8.039062 L 23.609375 8.089844 L 23.6875 8.191406 L 23.726562 8.246094 Z M 22.1875 6.53125 L 21.886719 6.867188 L 21.875 6.859375 L 21.828125 6.816406 L 21.78125 6.777344 L 21.734375 6.734375 L 21.59375 6.617188 L 21.546875 6.574219 L 21.5 6.535156 L 21.449219 6.496094 L 21.402344 6.460938 L 21.355469 6.421875 L 21.304688 6.382812 L 21.257812 6.34375 L 21.207031 6.308594 L 21.199219 6.304688 L 21.472656 5.941406 L 21.480469 5.945312 L 21.632812 6.0625 L 21.683594 6.105469 L 21.785156 6.183594 L 21.886719 6.269531 L 21.933594 6.308594 L 21.984375 6.351562 L 22.03125 6.394531 L 22.082031 6.433594 L 22.175781 6.519531 Z M 20.3125 5.175781 L 20.089844 5.570312 L 20.066406 5.558594 L 20.015625 5.527344 L 19.960938 5.496094 L 19.90625 5.46875 L 19.851562 5.4375 L 19.796875 5.410156 L 19.738281 5.378906 L 19.574219 5.296875 L 19.515625 5.269531 L 19.40625 5.214844 L 19.347656 5.1875 L 19.300781 5.164062 L 19.488281 4.753906 L 19.539062 4.777344 L 19.714844 4.859375 L 19.773438 4.890625 L 19.832031 4.917969 L 19.890625 4.949219 L 19.949219 4.976562 L 20.007812 5.007812 L 20.0625 5.039062 L 20.179688 5.101562 L 20.234375 5.132812 L 20.292969 5.164062 Z M 18.191406 4.253906 L 18.058594 4.6875 L 18 4.667969 L 17.9375 4.652344 L 17.878906 4.632812 L 17.816406 4.617188 L 17.753906 4.597656 L 17.695312 4.582031 L 17.507812 4.535156 L 17.449219 4.519531 L 17.261719 4.472656 L 17.199219 4.460938 L 17.296875 4.019531 L 17.359375 4.03125 L 17.492188 4.0625 L 17.554688 4.078125 L 17.621094 4.09375 L 17.683594 4.109375 L 17.75 4.125 L 17.8125 4.144531 L 17.875 4.160156 L 17.941406 4.179688 L 18.003906 4.199219 L 18.066406 4.214844 L 18.132812 4.234375 Z M 18.191406 4.253906 " fill-opacity="1" fill-rule="nonzero"/><path fill="#53b4ed" d="M 17.617188 5.886719 C 22.378906 7.332031 25.074219 12.367188 23.628906 17.132812 C 22.183594 21.898438 17.148438 24.589844 12.382812 23.144531 C 7.621094 21.699219 4.925781 16.667969 6.371094 11.902344 C 7.816406 7.136719 12.851562 4.445312 17.617188 5.886719 Z M 17.617188 5.886719 " fill-opacity="1" fill-rule="evenodd"/><path fill="#74c3f1" d="M 17.617188 5.886719 C 18.832031 6.257812 19.914062 6.859375 20.828125 7.632812 C 20 7.011719 19.054688 6.519531 18.011719 6.203125 C 13.246094 4.757812 8.210938 7.453125 6.765625 12.21875 C 5.691406 15.765625 6.910156 19.464844 9.570312 21.714844 C 6.636719 19.503906 5.246094 15.621094 6.371094 11.902344 C 7.816406 7.136719 12.851562 4.445312 17.617188 5.886719 Z M 17.617188 5.886719 " fill-opacity="1" fill-rule="evenodd"/><path fill="#43a6e0" d="M 22.585938 9.640625 C 23.960938 11.789062 24.425781 14.5 23.628906 17.132812 C 22.183594 21.898438 17.148438 24.589844 12.382812 23.144531 C 9.742188 22.34375 7.738281 20.441406 6.722656 18.09375 C 7.839844 19.832031 9.558594 21.199219 11.691406 21.84375 C 16.457031 23.289062 21.492188 20.597656 22.9375 15.832031 C 23.582031 13.707031 23.402344 11.53125 22.585938 9.640625 Z M 22.585938 9.640625 " fill-opacity="1" fill-rule="evenodd"/><path fill="#ecf0f1" d="M 22.433594 9.414062 C 23.648438 11.1875 24.222656 13.375 23.953125 15.597656 C 23.9375 15.550781 23.929688 15.492188 23.925781 15.40625 C 23.738281 15.410156 23.734375 15.410156 23.523438 15.382812 L 23.511719 15.394531 C 23.398438 15.484375 23.496094 15.460938 23.320312 15.535156 C 23.113281 15.625 22.949219 15.78125 22.726562 15.839844 C 22.644531 16.027344 22.671875 16.085938 22.550781 16.304688 C 22.503906 16.386719 22.339844 16.585938 22.230469 16.535156 C 22.195312 16.519531 22.160156 16.097656 22.152344 15.980469 C 22.148438 15.785156 22.117188 15.632812 22.132812 15.417969 C 22.144531 15.300781 22.191406 15.089844 22.1875 15.007812 C 22.0625 14.988281 22.046875 15.066406 21.957031 14.953125 C 21.894531 14.871094 21.941406 14.847656 21.921875 14.746094 C 21.855469 14.628906 21.785156 14.511719 21.714844 14.394531 C 21.648438 14.347656 21.347656 14.300781 21.230469 14.253906 C 21.019531 14.164062 20.996094 14.171875 20.917969 13.960938 C 20.683594 13.902344 20.679688 13.992188 20.511719 13.730469 C 20.402344 13.566406 20.492188 13.375 20.246094 13.421875 C 20.183594 13.601562 20.257812 13.667969 20.3125 13.777344 C 20.351562 13.859375 20.410156 13.921875 20.414062 14.019531 C 20.417969 14.023438 20.40625 14.109375 20.40625 14.121094 C 20.609375 14.195312 20.6875 14.113281 20.828125 14.0625 C 20.90625 14.199219 20.792969 14.183594 20.929688 14.316406 C 21.035156 14.417969 21.023438 14.371094 21.074219 14.5 C 21.074219 14.652344 20.632812 14.933594 20.503906 14.96875 C 20.402344 14.996094 20.371094 14.953125 20.277344 14.992188 C 20.136719 15.050781 20.265625 15.074219 20.050781 15.085938 C 19.820312 15.101562 19.566406 15.199219 19.347656 15.144531 C 19.335938 15 19.332031 14.855469 19.324219 14.710938 C 19.320312 14.226562 19.273438 14.398438 19.203125 14.128906 C 19.164062 14.007812 19.210938 13.953125 19.195312 13.851562 C 19.183594 13.773438 19.148438 13.730469 19.128906 13.636719 C 19.105469 13.492188 19.089844 13.273438 18.9375 13.246094 C 18.878906 13.339844 18.941406 13.726562 18.957031 13.820312 C 18.972656 13.914062 19.03125 13.96875 19.011719 14.09375 C 18.992188 14.261719 18.964844 14.230469 19.019531 14.367188 C 19.136719 14.648438 18.957031 14.546875 19.175781 14.855469 C 19.34375 15.082031 19.273438 15.113281 19.296875 15.363281 C 19.425781 15.445312 19.902344 15.382812 19.957031 15.460938 C 20 15.640625 19.738281 15.828125 19.652344 15.945312 C 19.363281 16.34375 19.09375 16.253906 18.785156 16.53125 C 18.613281 16.679688 18.554688 16.691406 18.382812 16.878906 C 18.1875 17.09375 18.335938 17.894531 18.035156 18.117188 C 17.96875 18.171875 17.804688 18.164062 17.550781 18.308594 C 17.285156 18.464844 17.503906 18.492188 17.3125 18.832031 C 17.226562 18.898438 17.152344 18.878906 17.058594 18.917969 C 17.003906 18.996094 17.007812 19.070312 16.929688 19.164062 C 16.839844 19.273438 16.851562 19.203125 16.746094 19.285156 C 16.671875 19.351562 16.667969 19.386719 16.582031 19.445312 C 16.507812 19.496094 16.476562 19.507812 16.414062 19.539062 C 16.105469 19.6875 15.585938 19.535156 15.550781 19.492188 C 15.460938 19.351562 15.554688 19.347656 15.566406 19.195312 C 15.574219 19.058594 15.539062 18.929688 15.511719 18.8125 L 15.511719 18.800781 C 15.496094 18.742188 15.488281 18.691406 15.488281 18.640625 C 15.484375 18.296875 15.589844 18.070312 15.511719 17.699219 C 15.421875 17.21875 15.824219 17.109375 15.882812 16.871094 C 15.894531 16.808594 15.882812 16.765625 15.894531 16.714844 C 15.929688 16.445312 15.972656 16.207031 15.863281 15.953125 C 15.742188 15.679688 15.742188 15.761719 15.914062 15.421875 C 16.117188 15.03125 15.90625 15.082031 15.664062 14.996094 C 15.65625 14.582031 15.363281 14.695312 15.089844 14.734375 C 14.921875 14.757812 14.894531 14.652344 14.714844 14.625 C 14.324219 14.5625 14.570312 14.8125 14.191406 14.261719 C 14.03125 14.03125 14.144531 14.160156 14.085938 13.914062 C 14.066406 13.828125 13.96875 13.6875 13.933594 13.59375 C 13.816406 13.300781 14.113281 13.125 14.164062 12.84375 C 14.261719 12.316406 14.042969 12.734375 14.515625 12.203125 C 14.761719 11.921875 14.992188 11.988281 15.09375 11.859375 C 15.183594 11.746094 15.175781 11.640625 15.308594 11.550781 C 15.421875 11.480469 15.53125 11.535156 15.625 11.394531 C 15.75 11.226562 15.628906 11.164062 15.492188 11.117188 C 15.496094 10.90625 15.480469 10.953125 15.578125 10.785156 C 15.632812 10.691406 15.628906 10.636719 15.679688 10.539062 C 15.8125 10.304688 16.167969 10.6875 16.324219 10.621094 C 16.417969 10.53125 16.457031 10.425781 16.421875 10.300781 C 16.382812 10.175781 16.289062 10.164062 16.273438 10.046875 C 16.398438 10.011719 16.304688 10.046875 16.402344 10.054688 C 16.515625 10.0625 16.511719 10.027344 16.644531 10.042969 C 16.765625 10.054688 16.867188 9.972656 17 9.9375 C 17.1875 9.882812 17.140625 9.769531 17.339844 9.796875 C 17.664062 9.835938 17.460938 9.785156 17.582031 9.507812 C 17.632812 9.503906 17.683594 9.5 17.734375 9.492188 C 17.792969 9.648438 17.6875 9.558594 17.777344 9.679688 C 17.8125 9.671875 17.855469 9.664062 17.894531 9.65625 C 17.917969 9.511719 17.847656 9.519531 17.859375 9.339844 C 17.699219 9.316406 17.605469 9.429688 17.496094 9.34375 C 17.390625 9.265625 17.4375 9.09375 17.484375 8.953125 C 17.5625 8.859375 17.800781 8.871094 17.894531 8.867188 C 18.046875 8.863281 18.054688 8.765625 18.21875 8.679688 C 18.4375 8.5625 18.265625 8.691406 18.410156 8.503906 C 18.59375 8.550781 18.511719 8.519531 18.632812 8.496094 L 18.652344 8.496094 C 18.726562 8.484375 18.808594 8.503906 18.902344 8.5 C 19.238281 8.492188 19.34375 8.578125 19.539062 8.738281 C 19.6875 8.859375 20.203125 9.019531 20.175781 9.246094 C 20.011719 9.339844 19.921875 9.207031 19.742188 9.164062 C 19.722656 9.34375 19.738281 9.347656 19.875 9.441406 C 19.921875 9.367188 19.878906 9.386719 19.933594 9.351562 C 19.980469 9.375 20.027344 9.398438 20.074219 9.425781 C 20.175781 9.269531 20.226562 9.3125 20.402344 9.339844 C 20.410156 9.214844 20.371094 9.238281 20.460938 9.167969 C 20.628906 9.238281 20.492188 9.179688 20.535156 9.34375 C 20.664062 9.367188 20.824219 9.265625 20.996094 9.300781 C 21.105469 9.320312 21.085938 9.359375 21.242188 9.386719 C 21.367188 9.414062 21.375 9.367188 21.480469 9.453125 C 21.550781 9.386719 21.503906 9.375 21.617188 9.386719 C 21.792969 9.410156 21.90625 9.554688 22.058594 9.625 C 21.984375 9.441406 21.863281 9.4375 22.082031 9.238281 C 22.28125 9.257812 22.289062 9.289062 22.328125 9.453125 C 22.378906 9.441406 22.40625 9.421875 22.433594 9.414062 Z M 7.136719 10.101562 C 8.0625 8.449219 9.46875 7.167969 11.117188 6.378906 C 11.207031 6.445312 11.34375 6.464844 11.445312 6.488281 C 11.5 6.433594 11.539062 6.382812 11.613281 6.378906 C 11.640625 6.375 11.671875 6.382812 11.710938 6.398438 C 11.707031 6.433594 11.707031 6.46875 11.703125 6.503906 C 11.703125 6.507812 11.699219 6.53125 11.699219 6.527344 C 11.703125 6.519531 11.703125 6.539062 11.703125 6.546875 C 11.90625 6.5 11.761719 6.453125 11.910156 6.296875 C 11.773438 6.222656 11.785156 6.246094 11.722656 6.125 C 11.84375 6.054688 12.023438 6.074219 12.148438 6.121094 C 12.113281 6.207031 12.070312 6.195312 12.082031 6.277344 C 12.199219 6.246094 12.320312 6.101562 12.46875 6.183594 C 12.496094 6.210938 12.523438 6.242188 12.550781 6.273438 C 12.445312 6.324219 12.320312 6.292969 12.199219 6.304688 C 12.003906 6.769531 12.328125 6.429688 12.160156 6.738281 C 12.28125 6.765625 12.425781 6.714844 12.496094 6.636719 C 12.46875 6.566406 12.40625 6.546875 12.390625 6.46875 C 12.445312 6.386719 12.523438 6.339844 12.621094 6.324219 C 12.683594 6.316406 12.757812 6.320312 12.835938 6.34375 C 13.710938 6.617188 13.28125 6.53125 13.515625 6.738281 C 13.566406 6.78125 13.671875 6.828125 13.691406 6.890625 C 13.722656 6.992188 13.644531 7.054688 13.710938 7.148438 C 13.773438 7.230469 13.800781 7.175781 13.863281 7.332031 C 13.820312 7.398438 13.746094 7.460938 13.636719 7.429688 C 13.488281 7.386719 13.605469 7.3125 13.441406 7.277344 C 13.398438 7.429688 13.53125 7.53125 13.367188 7.570312 C 13.222656 7.609375 13.332031 7.53125 13.226562 7.554688 C 13.222656 7.554688 13.210938 7.558594 13.207031 7.558594 C 13.203125 7.5625 13.195312 7.566406 13.191406 7.570312 C 13.167969 7.582031 13.148438 7.59375 13.128906 7.605469 C 12.929688 7.480469 12.960938 7.519531 12.871094 7.332031 C 12.839844 7.261719 12.835938 7.246094 12.746094 7.226562 C 12.691406 7.210938 12.609375 7.214844 12.574219 7.148438 C 12.722656 7.046875 12.734375 7.195312 12.914062 7.160156 C 12.949219 7.15625 13.164062 7.074219 13.199219 7.050781 C 13.183594 6.933594 13.199219 7.03125 13.152344 6.941406 C 13.042969 6.738281 12.988281 6.765625 12.777344 6.703125 C 12.644531 6.785156 12.527344 6.902344 12.402344 6.933594 C 12.328125 6.949219 12.25 6.933594 12.160156 6.859375 C 12.148438 7.066406 12.3125 6.957031 12.257812 7.1875 C 12.179688 7.148438 12.152344 7.097656 12.058594 7.101562 C 11.863281 7.113281 12.023438 7.152344 12.023438 7.195312 C 12.023438 7.195312 12.105469 7.230469 12.011719 7.234375 C 11.910156 7.242188 12.003906 7.214844 11.859375 7.054688 C 11.898438 7.019531 11.9375 6.980469 11.976562 6.941406 C 11.816406 6.941406 11.617188 6.957031 11.421875 6.988281 C 11.203125 7.027344 10.992188 7.082031 10.851562 7.148438 C 10.800781 7.3125 10.863281 7.210938 10.820312 7.414062 C 11.074219 7.507812 10.96875 7.558594 11.203125 7.710938 C 11.25 7.738281 11.308594 7.769531 11.378906 7.808594 C 11.34375 7.929688 11.203125 7.992188 11.242188 8.144531 C 11.382812 8.324219 11.464844 8.078125 11.554688 7.9375 C 12.203125 7.992188 11.964844 7.726562 12.222656 7.4375 C 12.261719 7.394531 12.308594 7.351562 12.375 7.308594 C 12.421875 7.324219 12.605469 7.402344 12.644531 7.425781 C 12.777344 7.492188 12.691406 7.5 12.820312 7.613281 C 12.78125 7.730469 12.675781 7.867188 12.859375 7.894531 C 13.003906 7.910156 13.003906 7.792969 13.179688 7.816406 C 13.199219 8.015625 13.15625 8.085938 13.128906 8.304688 C 13.476562 8.582031 13.261719 8.652344 13.097656 8.917969 C 13.140625 8.957031 13.1875 8.996094 13.230469 9.035156 C 13.203125 9.117188 13.175781 9.199219 13.148438 9.28125 C 13.140625 9.277344 12.75 9.058594 12.726562 9.042969 C 12.84375 8.882812 12.960938 8.914062 13.089844 8.75 C 12.933594 8.734375 12.929688 8.78125 12.8125 8.78125 C 12.707031 8.78125 12.640625 8.738281 12.53125 8.722656 C 12.460938 8.832031 12.5625 8.617188 12.527344 8.773438 C 12.515625 8.832031 12.558594 8.785156 12.5 8.835938 C 12.382812 8.730469 12.476562 8.59375 12.175781 8.65625 C 12.226562 8.699219 12.277344 8.742188 12.332031 8.785156 C 12.269531 8.949219 12.296875 8.820312 12.226562 8.921875 C 12.050781 9.183594 12.433594 9.105469 12.523438 9.113281 C 12.453125 9.261719 12.359375 9.230469 12.214844 9.234375 C 12.054688 9.234375 11.992188 9.28125 11.867188 9.273438 C 11.925781 9.089844 11.851562 9.234375 11.96875 9.132812 C 11.847656 9.109375 11.746094 9.136719 11.621094 9.148438 L 11.609375 9.148438 C 11.449219 9.164062 11.425781 9.167969 11.355469 9.34375 C 11.222656 9.34375 11.070312 9.34375 10.957031 9.40625 C 10.847656 9.460938 10.734375 9.519531 10.628906 9.570312 C 10.617188 9.574219 10.609375 9.582031 10.605469 9.582031 C 10.566406 9.820312 10.535156 9.816406 10.367188 9.863281 C 10.230469 9.902344 10.191406 9.890625 10.054688 9.953125 C 9.617188 10.15625 9.824219 10.0625 9.683594 10.601562 C 9.617188 10.558594 9.554688 10.511719 9.496094 10.46875 C 9.550781 10.097656 9.589844 10.238281 9.328125 10.070312 C 9.046875 9.886719 9.042969 10.050781 8.910156 10.039062 C 8.757812 10.027344 8.738281 9.847656 8.492188 9.917969 C 8.355469 9.960938 8.234375 9.980469 8.164062 10.109375 C 8.082031 10.261719 7.96875 10.363281 7.925781 10.550781 C 7.792969 11.054688 8.238281 11.21875 8.425781 11.023438 C 8.546875 10.890625 8.554688 10.800781 8.792969 10.917969 C 8.777344 11.058594 8.710938 11.144531 8.644531 11.234375 C 8.605469 11.289062 8.511719 11.378906 8.519531 11.46875 C 8.675781 11.597656 8.722656 11.460938 8.917969 11.671875 C 8.863281 11.914062 8.65625 12.144531 8.796875 12.335938 C 8.90625 12.480469 8.945312 12.390625 9.074219 12.40625 C 9.21875 12.425781 9.167969 12.503906 9.289062 12.5625 C 9.390625 12.496094 9.34375 12.542969 9.421875 12.449219 C 9.5625 12.285156 9.558594 12.378906 9.789062 12.324219 C 9.8125 12.320312 9.832031 12.3125 9.855469 12.304688 C 9.863281 12.359375 9.875 12.410156 9.882812 12.460938 C 10.078125 12.335938 10.042969 12.503906 10.195312 12.601562 C 10.261719 12.644531 10.308594 12.664062 10.347656 12.679688 C 10.46875 12.71875 10.5 12.660156 10.644531 12.769531 C 10.664062 12.785156 10.683594 12.800781 10.703125 12.8125 C 10.707031 12.8125 10.714844 12.820312 10.714844 12.824219 C 10.714844 12.828125 10.722656 12.835938 10.722656 12.839844 C 10.742188 12.878906 10.734375 12.910156 10.746094 12.953125 C 10.828125 13.09375 10.910156 13.238281 10.988281 13.375 C 11.179688 13.527344 11.226562 13.367188 11.402344 13.683594 C 11.476562 13.816406 11.433594 13.796875 11.449219 13.945312 C 11.453125 13.964844 11.464844 13.992188 11.46875 14.019531 C 11.472656 14.085938 11.480469 14.152344 11.488281 14.214844 C 11.554688 14.398438 11.738281 14.351562 11.847656 14.554688 C 11.914062 14.667969 11.851562 14.621094 12.042969 14.71875 C 12.339844 14.863281 12.226562 14.796875 12.410156 15.050781 C 12.480469 15.144531 12.515625 15.113281 12.582031 15.195312 C 12.652344 15.398438 12.566406 15.566406 12.421875 15.683594 C 11.980469 16.039062 12.109375 15.996094 11.988281 16.34375 C 11.914062 16.546875 11.730469 16.949219 11.523438 16.941406 C 10.769531 16.925781 11.132812 17.183594 10.847656 17.472656 C 10.765625 17.554688 10.71875 17.566406 10.660156 17.632812 C 10.425781 17.914062 10.488281 18.050781 10.101562 17.855469 C 10.121094 17.933594 10.109375 17.882812 10.128906 17.953125 C 10.195312 18.179688 10.171875 18.328125 9.90625 18.296875 C 9.6875 18.273438 9.789062 18.261719 9.699219 18.484375 C 9.609375 18.496094 9.585938 18.449219 9.515625 18.488281 C 9.546875 18.640625 9.515625 18.511719 9.613281 18.625 C 9.570312 18.691406 9.53125 18.757812 9.488281 18.820312 C 9.390625 18.980469 9.425781 18.816406 9.347656 19.011719 C 9.410156 19.066406 9.460938 19.074219 9.5 19.179688 C 9.46875 19.246094 9.347656 19.40625 9.296875 19.503906 C 9.355469 19.6875 9.386719 19.875 9.601562 19.957031 C 9.558594 20.085938 9.59375 20.082031 9.476562 20.074219 C 9.375 20.066406 9.203125 19.917969 9.132812 19.851562 C 9.011719 19.730469 8.910156 19.585938 8.859375 19.414062 C 8.828125 19.3125 8.839844 19.359375 8.804688 19.265625 C 8.738281 19.097656 8.800781 19.046875 8.796875 18.949219 C 8.796875 18.890625 8.726562 18.808594 8.816406 18.644531 C 8.839844 18.597656 8.988281 18.390625 8.878906 18.402344 C 8.777344 18.410156 8.945312 18.445312 8.796875 18.46875 C 8.792969 18.375 8.804688 18.242188 8.820312 18.132812 C 8.839844 17.949219 8.800781 17.929688 8.8125 17.820312 C 8.847656 17.5625 8.960938 17.566406 8.96875 17.121094 C 8.972656 16.828125 9.199219 16.195312 9.21875 15.84375 C 9.21875 15.785156 9.21875 15.738281 9.210938 15.699219 C 9.171875 15.550781 9.007812 15.4375 8.890625 15.292969 C 8.882812 15.289062 8.878906 15.285156 8.878906 15.28125 C 8.71875 15.078125 8.695312 14.464844 8.597656 14.207031 C 8.554688 14.085938 8.496094 14.117188 8.507812 13.949219 C 8.515625 13.792969 8.5625 13.835938 8.648438 13.730469 C 8.539062 13.203125 9.101562 13.382812 9.148438 12.804688 C 9.152344 12.699219 9.125 12.535156 9.078125 12.472656 C 8.945312 12.488281 8.992188 12.535156 8.902344 12.613281 C 8.824219 12.53125 8.746094 12.449219 8.671875 12.371094 C 8.46875 12.007812 8.558594 12.253906 8.535156 12.050781 C 8.476562 11.621094 8.25 11.785156 8.101562 11.535156 C 8.035156 11.429688 8.054688 11.304688 7.898438 11.28125 C 7.660156 11.242188 7.773438 11.316406 7.570312 11.132812 C 7.398438 10.976562 7.222656 10.800781 7.121094 10.632812 C 7.171875 10.429688 7.25 10.441406 7.179688 10.21875 C 7.167969 10.179688 7.152344 10.140625 7.136719 10.101562 Z M 11.238281 6.324219 C 11.300781 6.292969 11.367188 6.265625 11.4375 6.234375 L 11.4375 6.246094 C 11.441406 6.265625 11.453125 6.269531 11.449219 6.320312 C 11.300781 6.308594 11.292969 6.332031 11.238281 6.324219 Z M 17.84375 11.128906 C 17.902344 11.199219 17.988281 11.265625 18.027344 11.332031 C 18.039062 11.550781 17.976562 11.425781 18.058594 11.675781 C 18.105469 11.8125 18.0625 11.886719 18.125 11.972656 C 18.285156 12 18.136719 12.003906 18.261719 11.9375 C 18.28125 11.925781 18.347656 11.886719 18.367188 11.867188 C 18.339844 11.777344 18.3125 11.761719 18.289062 11.671875 C 18.53125 11.496094 18.566406 11.648438 18.5625 11.8125 C 18.542969 12.261719 18.746094 12.191406 18.890625 12.210938 C 19.035156 12.234375 18.90625 12.222656 19.023438 12.292969 C 19.136719 12.363281 19.089844 12.3125 19.179688 12.316406 C 19.492188 12.332031 19.097656 12.828125 19.050781 12.878906 C 18.886719 12.851562 18.925781 12.828125 18.816406 12.78125 C 18.59375 12.6875 18.789062 12.921875 18.300781 12.582031 C 17.832031 12.257812 17.953125 12.253906 17.738281 12.582031 C 17.621094 12.539062 17.632812 12.515625 17.535156 12.445312 C 17.496094 12.417969 17.476562 12.402344 17.460938 12.390625 L 17.457031 12.386719 C 17.414062 12.359375 17.457031 12.386719 17.390625 12.273438 C 17.332031 12.171875 17.140625 12.09375 17.027344 11.980469 C 17.0625 11.859375 17.199219 11.792969 17.113281 11.613281 C 17.074219 11.589844 16.480469 11.433594 16.378906 11.425781 C 16.175781 11.410156 16.09375 11.558594 15.84375 11.445312 C 15.707031 11.382812 15.75 11.410156 15.742188 11.316406 C 15.800781 11.285156 15.746094 11.292969 15.835938 11.289062 C 15.871094 11.285156 15.878906 11.292969 15.910156 11.300781 C 16.355469 11.363281 16.203125 11.082031 16.53125 10.957031 C 16.804688 10.847656 16.578125 10.972656 16.761719 10.796875 C 16.917969 10.828125 16.875 10.894531 17.019531 10.871094 C 17.140625 10.851562 17.125 10.792969 17.273438 10.835938 C 17.367188 11.007812 17.3125 11.078125 17.5 11.246094 C 17.574219 11.3125 17.617188 11.351562 17.652344 11.441406 C 17.707031 11.613281 17.636719 11.539062 17.644531 11.648438 C 17.65625 11.648438 17.667969 11.644531 17.679688 11.644531 L 17.6875 11.644531 C 17.820312 11.625 17.652344 11.554688 17.886719 11.445312 C 17.847656 11.386719 17.8125 11.347656 17.785156 11.316406 L 17.78125 11.3125 C 17.660156 11.183594 17.695312 11.277344 17.578125 10.988281 C 17.546875 10.90625 17.535156 10.898438 17.570312 10.796875 C 17.710938 10.8125 17.707031 10.917969 17.796875 11.0625 C 17.808594 11.082031 17.824219 11.101562 17.839844 11.121094 Z M 18.988281 17.976562 C 18.847656 18.003906 18.789062 18.140625 18.671875 18.191406 C 18.546875 18.253906 18.425781 18.167969 18.335938 18.328125 C 18.222656 18.519531 18.375 18.496094 18.144531 18.726562 C 18.0625 18.8125 17.980469 19.066406 18.039062 19.164062 C 18.210938 19.472656 18.515625 18.925781 18.628906 18.757812 C 18.707031 18.640625 18.792969 18.503906 18.875 18.394531 C 18.957031 18.277344 19.054688 18.183594 18.988281 17.976562 Z M 20.460938 11.683594 C 20.398438 11.960938 20.527344 12.113281 20.601562 12.273438 C 20.550781 12.394531 20.53125 12.355469 20.476562 12.535156 C 20.585938 12.671875 20.664062 12.761719 20.855469 12.765625 C 20.945312 12.558594 20.875 12.546875 20.855469 12.378906 C 20.871094 12.363281 20.90625 12.351562 20.914062 12.351562 C 20.984375 12.296875 20.929688 12.382812 20.988281 12.277344 C 20.871094 12.195312 20.703125 12 20.738281 11.820312 C 20.820312 11.789062 20.789062 11.8125 20.847656 11.796875 C 20.96875 11.761719 20.859375 11.839844 20.957031 11.746094 C 20.933594 11.628906 20.882812 11.59375 20.738281 11.605469 C 20.675781 11.609375 20.5 11.671875 20.460938 11.683594 Z M 19.308594 11.414062 C 19.261719 11.269531 19.285156 11.210938 19.117188 11.15625 C 19.03125 11.207031 18.921875 11.289062 18.851562 11.386719 C 18.75 11.535156 18.820312 11.433594 18.773438 11.609375 C 18.769531 11.617188 18.769531 11.625 18.765625 11.632812 C 18.730469 11.738281 18.746094 11.605469 18.730469 11.707031 C 18.871094 11.71875 18.769531 11.691406 18.875 11.691406 C 18.976562 11.6875 19.28125 11.6875 19.355469 11.730469 C 19.53125 11.835938 19.644531 12.035156 19.90625 11.949219 C 19.957031 11.753906 19.746094 11.609375 19.609375 11.476562 C 19.671875 11.300781 19.675781 11.457031 19.71875 11.28125 C 19.664062 11.261719 19.632812 11.242188 19.574219 11.25 C 19.433594 11.265625 19.496094 11.304688 19.492188 11.324219 C 19.46875 11.421875 19.621094 11.339844 19.457031 11.421875 C 19.414062 11.441406 19.355469 11.421875 19.308594 11.414062 Z M 16.488281 9.09375 C 16.390625 9.402344 16.527344 9.332031 16.585938 9.515625 C 16.5 9.632812 16.519531 9.527344 16.429688 9.644531 C 16.347656 9.746094 16.4375 9.660156 16.34375 9.847656 C 16.425781 9.878906 16.550781 9.886719 16.660156 9.90625 C 16.8125 9.941406 16.8125 9.925781 16.914062 9.789062 C 16.859375 9.660156 16.808594 9.535156 16.753906 9.40625 C 16.695312 9.210938 16.769531 9.355469 16.777344 9.207031 C 16.769531 9.152344 16.761719 9.097656 16.753906 9.042969 C 16.59375 9.046875 16.613281 9.039062 16.488281 9.09375 Z M 16.488281 9.09375 " fill-opacity="1" fill-rule="evenodd"/><path fill="#c6cbd6" d="M 22.585938 9.640625 L 22.59375 9.652344 L 22.628906 9.714844 L 22.648438 9.742188 L 22.652344 9.75 L 22.707031 9.835938 L 22.710938 9.84375 L 22.730469 9.878906 L 22.765625 9.933594 L 22.792969 9.980469 L 22.816406 10.027344 L 22.871094 10.121094 L 22.902344 10.175781 L 22.921875 10.210938 L 22.953125 10.273438 L 23 10.363281 C 23.03125 10.421875 23.0625 10.480469 23.089844 10.539062 L 23.09375 10.542969 L 23.128906 10.617188 L 23.144531 10.652344 L 23.175781 10.714844 L 23.1875 10.742188 L 23.21875 10.8125 L 23.226562 10.828125 L 23.261719 10.90625 L 23.300781 11 L 23.332031 11.074219 L 23.34375 11.101562 L 23.371094 11.167969 L 23.382812 11.199219 L 23.410156 11.265625 L 23.421875 11.300781 L 23.449219 11.367188 L 23.457031 11.394531 L 23.484375 11.46875 L 23.519531 11.5625 C 23.539062 11.621094 23.558594 11.679688 23.578125 11.738281 L 23.585938 11.765625 L 23.605469 11.828125 L 23.621094 11.878906 L 23.640625 11.941406 L 23.644531 11.957031 C 23.679688 12.078125 23.714844 12.199219 23.746094 12.320312 L 23.75 12.34375 L 23.773438 12.425781 L 23.777344 12.445312 L 23.796875 12.535156 C 23.832031 12.699219 23.867188 12.859375 23.894531 13.023438 L 23.894531 13.039062 L 23.910156 13.132812 C 23.941406 13.335938 23.96875 13.535156 23.984375 13.738281 L 23.984375 13.742188 C 24.039062 14.351562 24.027344 14.972656 23.953125 15.597656 C 23.9375 15.550781 23.929688 15.492188 23.925781 15.40625 C 23.738281 15.410156 23.734375 15.410156 23.523438 15.382812 L 23.511719 15.394531 C 23.398438 15.484375 23.496094 15.460938 23.320312 15.535156 C 23.195312 15.589844 23.082031 15.667969 22.964844 15.738281 C 23.574219 13.644531 23.390625 11.503906 22.585938 9.640625 Z M 22.585938 9.640625 " fill-opacity="1" fill-rule="evenodd"/><path fill="#f3f3f3" d="M 12.535156 6.28125 L 12.511719 6.289062 C 12.414062 6.320312 12.304688 6.292969 12.199219 6.304688 C 12.179688 6.347656 12.164062 6.386719 12.15625 6.417969 C 10.078125 7.21875 8.316406 8.777344 7.296875 10.863281 C 7.226562 10.789062 7.164062 10.710938 7.121094 10.632812 C 7.171875 10.429688 7.25 10.441406 7.179688 10.21875 C 7.167969 10.179688 7.152344 10.140625 7.136719 10.101562 C 8.0625 8.449219 9.46875 7.167969 11.117188 6.378906 C 11.207031 6.445312 11.34375 6.464844 11.445312 6.488281 C 11.5 6.433594 11.539062 6.382812 11.613281 6.378906 C 11.640625 6.375 11.671875 6.382812 11.710938 6.398438 C 11.707031 6.433594 11.707031 6.46875 11.703125 6.503906 C 11.703125 6.507812 11.699219 6.53125 11.699219 6.527344 C 11.703125 6.519531 11.703125 6.539062 11.703125 6.546875 C 11.90625 6.5 11.761719 6.453125 11.910156 6.296875 C 11.773438 6.222656 11.785156 6.246094 11.722656 6.125 C 11.84375 6.054688 12.023438 6.074219 12.148438 6.121094 C 12.113281 6.207031 12.070312 6.195312 12.082031 6.277344 C 12.199219 6.246094 12.320312 6.101562 12.46875 6.183594 C 12.496094 6.210938 12.523438 6.242188 12.550781 6.273438 C 12.546875 6.277344 12.539062 6.277344 12.535156 6.28125 Z M 11.238281 6.324219 C 11.300781 6.292969 11.367188 6.265625 11.4375 6.234375 L 11.4375 6.246094 C 11.441406 6.265625 11.453125 6.269531 11.449219 6.320312 C 11.300781 6.308594 11.292969 6.332031 11.238281 6.324219 Z M 11.238281 6.324219 " fill-opacity="1" fill-rule="evenodd"/><path fill="#ffc42e" d="M 25.726562 7.070312 L 25.726562 8.300781 L 16.085938 8.300781 L 16.085938 7.070312 Z M 25.726562 7.070312 " fill-opacity="1" fill-rule="evenodd"/><path fill="#ff576b" d="M 25.726562 7.070312 L 25.726562 8.300781 L 26.527344 8.300781 C 26.664062 8.300781 26.777344 8.191406 26.777344 8.050781 L 26.777344 7.316406 C 26.777344 7.179688 26.664062 7.070312 26.527344 7.070312 Z M 25.726562 7.070312 " fill-opacity="1" fill-rule="evenodd"/><path fill="#ffffff" d="M 15.019531 7.375 L 15.019531 7.992188 L 16.085938 8.300781 L 16.085938 7.070312 Z M 15.019531 7.375 " fill-opacity="1" fill-rule="evenodd"/><path fill="#4d4d4d" d="M 13.992188 7.683594 L 15.019531 7.375 L 15.019531 7.992188 Z M 13.992188 7.683594 " fill-opacity="1" fill-rule="evenodd"/><path fill="#eaa43a" d="M 25.726562 7.925781 L 25.726562 8.300781 L 16.085938 8.300781 L 16.085938 7.925781 Z M 25.726562 7.925781 " fill-opacity="1" fill-rule="evenodd"/><path fill="#ff576b" d="M 7.441406 14.929688 L 14.164062 14.929688 L 14.164062 25.851562 L 7.882812 25.851562 C 7.238281 25.851562 6.714844 25.328125 6.714844 24.683594 L 6.714844 15.660156 C 6.714844 15.257812 7.042969 14.929688 7.441406 14.929688 Z M 7.441406 14.929688 " fill-opacity="1" fill-rule="evenodd"/><path fill="#e64e60" d="M 7.664062 23.976562 L 14.164062 23.976562 L 14.164062 25.851562 L 7.882812 25.851562 C 7.261719 25.851562 6.75 25.363281 6.714844 24.746094 C 6.804688 24.308594 7.195312 23.976562 7.664062 23.976562 Z M 7.664062 23.976562 " fill-opacity="1" fill-rule="evenodd"/><path fill="#ffffff" d="M 7.753906 24.328125 L 14.164062 24.328125 L 14.164062 25.496094 L 7.753906 25.496094 C 7.429688 25.496094 7.167969 25.234375 7.167969 24.910156 C 7.167969 24.589844 7.429688 24.328125 7.753906 24.328125 Z M 7.753906 24.328125 " fill-opacity="1" fill-rule="evenodd"/></svg>