<svg xmlns="http://www.w3.org/2000/svg" xmlns:xlink="http://www.w3.org/1999/xlink" width="40" zoomAndPan="magnify" viewBox="0 0 30 30.000001" height="40" preserveAspectRatio="xMidYMid meet" version="1.0"><defs><clipPath id="c6eec72b3f"><path d="M 0.484375 0 L 29.515625 0 L 29.515625 29.03125 L 0.484375 29.03125 Z M 0.484375 0 " clip-rule="nonzero"/></clipPath></defs><path fill="#4377c3" d="M 5.574219 14.003906 C 5.550781 13.652344 5.492188 13.296875 5.398438 12.957031 C 5.296875 12.574219 5.039062 12.40625 4.683594 12.410156 C 4.339844 12.417969 4.113281 12.582031 3.996094 12.953125 C 3.933594 13.148438 3.878906 13.355469 3.875 13.558594 C 3.84375 14.664062 3.816406 15.769531 3.824219 16.875 C 3.828125 17.253906 3.917969 17.636719 4 18.011719 C 4.058594 18.261719 4.214844 18.449219 4.492188 18.511719 C 4.988281 18.625 5.371094 18.394531 5.449219 17.816406 C 5.554688 17.046875 5.585938 16.265625 5.648438 15.488281 C 5.625 15.488281 5.601562 15.488281 5.582031 15.484375 C 5.582031 14.992188 5.601562 14.496094 5.574219 14.003906 " fill-opacity="1" fill-rule="nonzero"/><path fill="#4377c3" d="M 10.839844 12.746094 C 10.839844 13.480469 10.839844 14.1875 10.839844 14.933594 C 11.359375 14.917969 11.914062 15.050781 12.203125 14.515625 C 12.457031 14.039062 12.445312 13.5 12.128906 13.050781 C 11.8125 12.605469 11.308594 12.738281 10.839844 12.746094 " fill-opacity="1" fill-rule="nonzero"/><g clip-path="url(#c6eec72b3f)"><path fill="#4377c3" d="M 25.257812 19.6875 C 25.183594 19.6875 25.078125 19.535156 25.046875 19.4375 C 24.53125 17.730469 24.019531 16.023438 23.507812 14.3125 C 23.480469 14.222656 23.453125 14.128906 23.421875 14.035156 C 23.402344 14.039062 23.378906 14.039062 23.359375 14.039062 C 23.359375 15.910156 23.359375 17.785156 23.359375 19.679688 C 22.761719 19.679688 22.183594 19.679688 21.589844 19.679688 C 21.589844 16.875 21.589844 14.082031 21.589844 11.253906 C 22.324219 11.253906 23.046875 11.246094 23.765625 11.265625 C 23.828125 11.265625 23.917969 11.417969 23.945312 11.515625 C 24.445312 13.15625 24.929688 14.796875 25.421875 16.441406 C 25.441406 16.503906 25.464844 16.566406 25.523438 16.621094 C 25.523438 14.847656 25.523438 13.074219 25.523438 11.277344 C 26.136719 11.277344 26.734375 11.277344 27.355469 11.277344 C 27.355469 14.066406 27.355469 16.867188 27.355469 19.699219 C 26.65625 19.699219 25.957031 19.707031 25.257812 19.6875 Z M 20.308594 19.679688 C 18.648438 19.679688 16.996094 19.679688 15.320312 19.679688 C 15.320312 16.878906 15.320312 14.085938 15.320312 11.273438 C 16.933594 11.273438 18.542969 11.273438 20.175781 11.273438 C 20.175781 11.78125 20.175781 12.300781 20.175781 12.855469 C 19.234375 12.855469 18.28125 12.855469 17.308594 12.855469 C 17.308594 13.429688 17.308594 13.964844 17.308594 14.535156 C 18.207031 14.535156 19.089844 14.535156 19.996094 14.535156 C 19.996094 15.085938 19.996094 15.605469 19.996094 16.164062 C 19.113281 16.164062 18.21875 16.164062 17.308594 16.164062 C 17.308594 16.816406 17.308594 17.425781 17.308594 18.070312 C 18.292969 18.070312 19.285156 18.070312 20.308594 18.070312 C 20.308594 18.636719 20.308594 19.148438 20.308594 19.679688 Z M 14.414062 14.089844 C 14.398438 14.332031 14.355469 14.582031 14.285156 14.816406 C 14.015625 15.734375 13.253906 16.316406 12.234375 16.371094 C 11.777344 16.394531 11.3125 16.375 10.824219 16.375 C 10.824219 17.527344 10.824219 18.597656 10.824219 19.683594 C 10.152344 19.683594 9.515625 19.683594 8.859375 19.683594 C 8.859375 16.882812 8.859375 14.089844 8.859375 11.253906 C 8.949219 11.253906 9.042969 11.253906 9.136719 11.253906 C 10.066406 11.253906 10.996094 11.261719 11.925781 11.25 C 13.800781 11.226562 14.507812 12.535156 14.414062 14.089844 Z M 7.492188 17.773438 C 7.234375 19.109375 6.460938 19.765625 5.101562 19.859375 C 4.671875 19.890625 4.230469 19.863281 3.804688 19.789062 C 2.808594 19.609375 2.210938 18.972656 1.964844 18.007812 C 1.660156 16.800781 1.691406 15.574219 1.757812 14.351562 C 1.777344 13.976562 1.828125 13.601562 1.902344 13.234375 C 2.175781 11.867188 2.871094 11.222656 4.242188 11.097656 C 4.691406 11.058594 5.160156 11.082031 5.601562 11.167969 C 6.71875 11.386719 7.375 12.132812 7.542969 13.378906 C 7.636719 14.082031 7.660156 14.792969 7.726562 15.601562 C 7.65625 16.265625 7.632812 17.03125 7.492188 17.773438 Z M 15 0 C 6.984375 0 0.484375 6.5 0.484375 14.515625 C 0.484375 22.535156 6.984375 29.03125 15 29.03125 C 23.015625 29.03125 29.515625 22.535156 29.515625 14.515625 C 29.515625 6.5 23.015625 0 15 0 " fill-opacity="1" fill-rule="nonzero"/></g></svg>