<svg xmlns="http://www.w3.org/2000/svg" xmlns:xlink="http://www.w3.org/1999/xlink" width="40" zoomAndPan="magnify" viewBox="0 0 30 30.000001" height="40" preserveAspectRatio="xMidYMid meet" version="1.0"><defs><clipPath id="2f063e3b97"><path d="M 0.484375 0 L 29.515625 0 L 29.515625 29.03125 L 0.484375 29.03125 Z M 0.484375 0 " clip-rule="nonzero"/></clipPath></defs><g clip-path="url(#2f063e3b97)"><path fill="#5e17eb" d="M 15 0 C 6.980469 0 0.484375 6.496094 0.484375 14.515625 C 0.484375 22.535156 6.980469 29.03125 15 29.03125 C 23.019531 29.03125 29.515625 22.535156 29.515625 14.515625 C 29.503906 6.496094 23.007812 0 15 0 Z M 23.359375 18.574219 C 23.195312 19.644531 22.265625 20.421875 21.183594 20.421875 L 8.804688 20.421875 C 7.722656 20.421875 6.792969 19.644531 6.628906 18.574219 C 6.480469 17.582031 6.328125 16.199219 6.316406 14.503906 C 6.328125 12.808594 6.464844 11.4375 6.628906 10.429688 C 6.792969 9.363281 7.722656 8.585938 8.804688 8.585938 L 21.183594 8.585938 C 22.265625 8.585938 23.195312 9.363281 23.359375 10.429688 C 23.507812 11.425781 23.660156 12.808594 23.671875 14.503906 C 23.660156 16.199219 23.507812 17.582031 23.359375 18.574219 Z M 23.359375 18.574219 " fill-opacity="1" fill-rule="nonzero"/></g><path fill="#5e17eb" d="M 13.164062 12.152344 L 13.164062 16.867188 L 17.550781 14.515625 Z M 13.164062 12.152344 " fill-opacity="1" fill-rule="nonzero"/></svg>